<svg xmlns="http://www.w3.org/2000/svg" xmlns:xlink="http://www.w3.org/1999/xlink" width="1280" zoomAndPan="magnify" viewBox="0 0 960 479.999983" height="640" preserveAspectRatio="xMidYMid meet" version="1.0"><defs><g/><clipPath id="4042fd1132"><path d="M 157.265625 118.097656 L 302 118.097656 L 302 265.097656 L 157.265625 265.097656 Z M 157.265625 118.097656 " clip-rule="nonzero"/></clipPath><clipPath id="703f5f919c"><path d="M 264.792969 228.402344 C 269.894531 222.371094 273.382812 214.179688 274.332031 205.953125 C 274.453125 204.917969 275.417969 204.183594 276.417969 204.304688 C 277.453125 204.425781 278.1875 205.355469 278.066406 206.390625 C 277.03125 215.355469 273.242188 224.265625 267.667969 230.84375 C 267.300781 231.28125 266.773438 231.507812 266.230469 231.507812 C 265.808594 231.507812 265.371094 231.367188 265.019531 231.070312 C 264.230469 230.402344 264.125 229.210938 264.808594 228.421875 Z M 251.730469 143.335938 C 252.117188 142.617188 252.082031 141.335938 251.132812 140.898438 C 245.242188 138.128906 238.949219 136.671875 232.390625 136.320312 L 232.390625 140.320312 C 238.332031 140.53125 243.785156 141.933594 249.222656 144.355469 C 250.273438 144.828125 251.34375 144.003906 251.730469 143.320312 Z M 265.652344 122.761719 L 296.421875 122.796875 L 296.421875 152.089844 C 296.441406 153.511719 297.582031 154.4375 298.824219 154.40625 C 299.964844 154.386719 301.15625 153.667969 301.15625 152.140625 L 301.15625 120.605469 C 301.15625 119.308594 300.296875 118.113281 298.929688 118.113281 L 265.773438 118.113281 C 264.355469 118.113281 263.355469 119.238281 263.425781 120.484375 C 263.476562 121.445312 264.335938 122.761719 265.652344 122.761719 Z M 263.441406 262.78125 C 263.496094 264.0625 264.460938 265.097656 266.074219 265.097656 L 299.019531 265.0625 C 300.28125 265.0625 301.15625 263.816406 301.15625 262.695312 L 301.15625 232.226562 C 301.15625 230.789062 300.28125 229.773438 299.019531 229.667969 C 297.898438 229.578125 296.457031 230.386719 296.457031 231.808594 L 296.457031 260.398438 C 296.457031 260.398438 265.96875 260.378906 265.96875 260.378906 C 264.476562 260.378906 263.40625 261.394531 263.460938 262.800781 Z M 236.140625 222.84375 C 236.140625 222.019531 235.6875 221.039062 234.632812 220.898438 C 233.949219 220.808594 233.074219 221.054688 232.390625 221.265625 L 232.390625 225.265625 C 232.390625 225.265625 234.476562 224.808594 234.476562 224.808594 C 235.492188 224.582031 236.160156 223.808594 236.160156 222.84375 Z M 265.84375 187.429688 C 265.84375 186.011719 265.039062 184.78125 263.863281 184.152344 C 263.441406 175.257812 260.269531 166.4375 253.625 160.246094 C 247.820312 154.84375 240.351562 151.738281 232.390625 151.351562 L 232.390625 155.175781 C 237.984375 155.648438 243.15625 157.316406 247.679688 160.492188 C 255.816406 166.207031 259.65625 174.679688 259.988281 184.378906 C 259.042969 185.046875 258.410156 186.152344 258.410156 187.414062 C 258.410156 189.464844 260.058594 191.113281 262.109375 191.113281 C 264.160156 191.113281 265.808594 189.449219 265.808594 187.414062 Z M 243.226562 188.117188 C 244.136719 187.449219 244.714844 186.363281 244.714844 185.152344 C 244.714844 183.414062 243.523438 181.960938 241.910156 181.554688 C 240.246094 177.589844 236.789062 174.453125 232.390625 173.910156 L 232.390625 177.90625 C 235.28125 178.660156 237.105469 180.46875 238.195312 182.765625 C 237.648438 183.414062 237.316406 184.238281 237.316406 185.152344 C 237.316406 186.660156 238.210938 187.941406 239.492188 188.519531 C 239.5625 189.921875 239.492188 191.34375 239.296875 192.660156 C 238.667969 197.445312 236.652344 202.21875 232.335938 204.953125 L 232.441406 209.199219 C 240.558594 206.144531 243.628906 196.304688 243.207031 188.117188 Z M 232.40625 232.945312 C 243.890625 231.542969 253.886719 225.019531 258.671875 215.003906 C 260.566406 214.847656 262.058594 213.25 262.058594 211.320312 C 262.058594 209.269531 260.390625 207.621094 258.359375 207.621094 C 256.324219 207.621094 254.65625 209.285156 254.65625 211.320312 C 254.65625 212.058594 254.867188 212.742188 255.253906 213.320312 C 255.113281 213.546875 254.957031 213.792969 254.816406 214.074219 C 250.273438 222.527344 241.859375 227.703125 232.390625 229.035156 L 232.425781 232.964844 Z M 237.648438 220.320312 C 237.648438 222.371094 239.316406 224.019531 241.347656 224.019531 C 243.382812 224.019531 245.050781 222.351562 245.050781 220.320312 C 245.050781 220.214844 245.050781 220.109375 245.050781 220.003906 C 247.890625 217.863281 250.167969 215.160156 251.992188 212.039062 C 253.796875 208.933594 254.921875 205.636719 255.761719 202.113281 C 256.902344 197.394531 257.113281 192.695312 257.078125 187.835938 C 257.042969 183.816406 256.605469 180.066406 255.324219 176.277344 C 254.253906 173.117188 252.660156 170.347656 250.675781 167.980469 C 250.675781 167.875 250.675781 167.769531 250.675781 167.664062 C 250.675781 165.613281 249.03125 163.964844 246.976562 163.964844 C 246.785156 163.964844 246.59375 163.980469 246.417969 164.015625 C 242.472656 161.085938 237.648438 159.28125 232.40625 158.753906 L 232.40625 162.648438 C 234.511719 163.035156 236.441406 163.402344 238.457031 164.140625 C 240.246094 164.789062 241.910156 165.648438 243.417969 166.683594 C 243.332031 166.996094 243.277344 167.332031 243.277344 167.683594 C 243.277344 169.734375 244.945312 171.382812 246.976562 171.382812 C 247.398438 171.382812 247.820312 171.3125 248.1875 171.171875 C 250.257812 173.804688 251.730469 176.941406 252.464844 180.378906 C 253.675781 185.976562 253.570312 191.589844 252.765625 197.289062 C 251.675781 204.972656 248.730469 212.25 242.59375 216.84375 C 242.207031 216.707031 241.789062 216.617188 241.347656 216.617188 C 239.296875 216.617188 237.648438 218.285156 237.648438 220.320312 Z M 244.261719 201.867188 C 242.59375 202.234375 241.347656 203.707031 241.347656 205.480469 C 241.347656 207.53125 243.015625 209.179688 245.050781 209.179688 C 247.082031 209.179688 248.75 207.515625 248.75 205.480469 C 248.75 204.585938 248.433594 203.777344 247.925781 203.148438 C 250.0625 197.113281 250.800781 190.589844 249.957031 184.203125 C 248.714844 174.699219 242.070312 167.402344 232.390625 166.296875 L 232.425781 170.277344 C 239.070312 171.261719 244.101562 175.925781 245.714844 182.363281 C 246.800781 186.695312 246.644531 191.0625 245.960938 195.480469 C 245.609375 197.726562 245.03125 199.816406 244.261719 201.882812 Z M 218.378906 240.628906 L 218.800781 244.699219 L 219.503906 243.136719 C 220.203125 241.648438 219.90625 239.417969 219.097656 239.277344 C 218.941406 239.242188 217.835938 239.171875 216.609375 239.136719 C 215.417969 239.066406 213.996094 238.910156 213.46875 238.804688 C 213.296875 238.769531 213.101562 238.734375 212.925781 238.734375 C 212.628906 238.734375 212.382812 238.789062 212.296875 238.910156 C 211.925781 239.472656 213.679688 240.171875 216.171875 240.402344 L 218.414062 240.628906 Z M 215.820312 247.734375 C 211.453125 247.257812 207.332031 245.242188 205.316406 242.609375 C 203.898438 240.753906 203.808594 239.035156 203.984375 237.964844 C 203.109375 237.613281 201.808594 236.769531 199.828125 234.875 C 196.269531 231.472656 194.339844 228.367188 194.359375 226.140625 C 194.359375 225.808594 194.429688 225.511719 194.515625 225.230469 C 194.515625 225.230469 194.5 225.230469 194.480469 225.230469 C 190.800781 225.105469 187.449219 222.738281 185.785156 219.074219 C 185.488281 218.425781 182.714844 210.792969 183.277344 209.234375 C 181.925781 208.726562 181.191406 207.8125 180.839844 207.199219 C 179.664062 205.164062 180.066406 202.515625 182.050781 199.148438 C 182.398438 198.550781 182.820312 197.796875 183.453125 197.199219 C 180.523438 191.851562 180.804688 181.75 184.082031 175.03125 C 184.433594 174.328125 185.257812 172.644531 186.90625 172.121094 C 186.660156 169.417969 188.941406 164.613281 190.203125 162.734375 C 191.097656 161.386719 191.957031 159.613281 192.132812 159 C 192.132812 158.964844 193.710938 153.914062 194.445312 153 L 194.480469 152.964844 C 194.640625 152.789062 194.78125 152.648438 194.9375 152.527344 C 195.882812 149.703125 203.230469 143.671875 203.230469 143.671875 L 206.386719 141.195312 C 208.929688 139.164062 211.121094 137.8125 213.539062 137.8125 C 214.664062 137.8125 215.644531 138.09375 216.554688 138.582031 C 217.207031 138.074219 218.03125 137.6875 219.046875 137.460938 C 220.046875 137.214844 220.992188 137.074219 221.851562 137.074219 C 224.394531 137.074219 225.902344 138.164062 226.726562 139.058594 C 228.042969 140.511719 228.566406 142.566406 228.304688 145.144531 C 228.113281 147.089844 227.902344 149.089844 227.007812 150.351562 C 228.460938 154.929688 229.109375 162.578125 227.199219 165.542969 C 227.164062 165.613281 227.113281 165.664062 227.078125 165.734375 C 227.113281 165.859375 227.128906 165.964844 227.148438 166.066406 C 227.585938 166.558594 227.882812 167.191406 228.023438 167.890625 C 228.320312 169.453125 227.777344 171.453125 226.671875 172.960938 C 228.882812 175.171875 229.109375 177.222656 228.742188 180.363281 C 228.550781 181.800781 228.304688 183.679688 227.289062 184.921875 C 228.113281 186.203125 228.65625 187.886719 229.390625 190.554688 C 230.390625 193.992188 231.25 198.515625 229.742188 200.535156 C 229.566406 200.761719 229.355469 200.972656 229.144531 201.148438 C 230.179688 204.09375 230.601562 207.515625 230.320312 211.144531 C 230.199219 212.898438 230.023438 215.355469 228.933594 217.039062 C 229.269531 217.84375 229.339844 218.667969 229.339844 219.214844 C 229.339844 219.722656 229.515625 221.457031 229.792969 223.089844 C 230.304688 226.246094 230.339844 228.527344 229.003906 230.105469 C 228.917969 230.210938 228.832031 230.316406 228.726562 230.402344 C 228.832031 230.703125 228.917969 231.019531 228.953125 231.367188 C 229.023438 231.894531 229.003906 232.703125 228.585938 233.578125 C 229.214844 234.5625 229.285156 235.734375 229.320312 236.28125 C 229.390625 237.507812 229.410156 240.296875 228.113281 241.890625 C 227.953125 246.085938 223.921875 249.3125 220.449219 249.3125 C 219.0625 249.3125 217.820312 248.804688 216.890625 247.890625 C 216.644531 247.839844 216.277344 247.769531 215.835938 247.734375 Z M 196.09375 155.070312 C 196.988281 154.703125 199.742188 153.667969 200.757812 153.421875 C 202.949219 152.894531 204.230469 149.140625 203.808594 146.5625 C 203.808594 146.5625 200.953125 147.667969 197.320312 152.683594 C 197.320312 152.683594 196.113281 155.070312 196.113281 155.089844 Z M 189.011719 171.261719 C 189.535156 170.925781 191.132812 169.875 191.902344 169.734375 C 192.21875 169.488281 193.394531 170.820312 193.65625 170.644531 C 194.058594 170.382812 194.234375 167.925781 194.394531 167.71875 C 193.816406 165.964844 194.113281 165.171875 194.269531 164.140625 C 194.429688 163.105469 195.023438 161.507812 195.691406 160.929688 C 196.355469 160.351562 196.917969 159.703125 196.847656 159.421875 C 196.707031 159.105469 195.464844 156.878906 195.394531 156.597656 C 195.199219 157.175781 194.410156 159.367188 194.324219 159.648438 C 194.023438 160.664062 192.992188 162.664062 192.097656 164.015625 C 190.886719 165.839844 189.5 169.574219 189.027344 171.277344 Z M 194.535156 223.316406 C 195.515625 223.351562 196.375 223.175781 196.726562 222.898438 C 197.355469 222.386719 198.320312 221.160156 197.515625 219.878906 C 197.375 219.652344 194.640625 216.144531 193.992188 216.144531 C 193.269531 216.144531 191.902344 216.230469 191.605469 215.195312 C 191.324219 214.195312 194.058594 214.300781 194.058594 214.300781 C 194.058594 214.300781 189.695312 209.445312 187.679688 209.445312 C 187.222656 209.445312 185.660156 209.53125 185.363281 209.566406 C 185.679688 211.25 186.679688 216.582031 187.46875 218.265625 C 188.851562 221.300781 191.554688 223.230469 194.515625 223.335938 Z M 204.351562 235.839844 C 203.703125 234.175781 203.195312 232.085938 203.667969 230.457031 C 203.5625 230.386719 198.53125 225.859375 197.988281 224.929688 C 197.761719 224.929688 196.289062 225.71875 196.269531 226.160156 C 196.269531 227.421875 197.636719 229.632812 201.265625 233.105469 C 202.230469 234.035156 203.757812 235.421875 204.351562 235.839844 Z M 216.136719 244.785156 C 217.363281 244.890625 218.503906 245.226562 218.679688 245.453125 C 219.097656 246.085938 219.730469 246.347656 220.429688 246.347656 C 222.464844 246.347656 225.128906 244.136719 225.128906 241.628906 C 225.128906 241.03125 225.410156 240.332031 225.746094 240.066406 C 226.445312 239.542969 226.601562 235.4375 225.953125 235.050781 C 225.78125 234.964844 225.585938 234.910156 225.394531 234.910156 C 224.675781 234.910156 223.851562 235.488281 223.65625 236.28125 C 223.394531 237.226562 223.183594 237.664062 222.992188 237.664062 C 222.867188 237.664062 222.761719 237.507812 222.640625 237.191406 C 222.429688 236.664062 221.816406 236.367188 220.554688 236.191406 C 216.328125 235.613281 213.609375 234.246094 215.976562 234.246094 C 216.3125 234.246094 216.75 234.28125 217.292969 234.332031 C 217.730469 234.367188 218.203125 234.386719 218.695312 234.386719 C 221.238281 234.386719 224.113281 233.839844 225.183594 233.015625 C 226.867188 231.789062 226.007812 230.527344 222.484375 229.089844 C 219.222656 227.753906 215.75 225.753906 215.75 225.195312 C 215.75 225.160156 215.800781 225.125 215.925781 225.125 C 216.960938 225.125 222.308594 226.84375 223.921875 227.753906 C 224.78125 228.230469 225.464844 228.472656 225.972656 228.472656 C 227.199219 228.472656 227.410156 226.964844 226.867188 223.511719 C 226.585938 221.84375 226.375 219.914062 226.375 219.160156 C 226.375 217.792969 225.882812 217.390625 224.339844 217.390625 C 223.886719 217.390625 222.625 216.652344 221.519531 215.757812 C 220.414062 214.863281 219.152344 213.933594 218.75 213.757812 C 218.34375 213.53125 218.132812 213.265625 218.292969 213.128906 C 218.292969 213.128906 218.328125 213.109375 218.363281 213.109375 C 218.695312 213.109375 219.957031 213.671875 221.308594 214.390625 C 223.148438 215.40625 224.410156 215.96875 225.269531 215.96875 C 226.691406 215.96875 227.09375 214.460938 227.339844 210.898438 C 227.796875 205.007812 226.199219 199.761719 222.972656 196.691406 C 222.113281 195.902344 221.921875 195.515625 222.167969 195.515625 C 222.464844 195.515625 223.449219 196.097656 224.691406 197.167969 C 225.761719 198.09375 226.867188 198.832031 227.148438 198.832031 C 227.917969 198.832031 227.671875 195.308594 226.535156 191.34375 C 225.21875 186.554688 224.816406 185.886719 222.414062 184.484375 C 220.921875 183.609375 219.816406 183.167969 218.851562 183.167969 C 217.90625 183.167969 217.082031 183.589844 216.152344 184.449219 L 214.839844 185.605469 L 215.046875 183.414062 C 215.171875 182.222656 215.417969 180.589844 215.539062 179.855469 C 215.785156 178.695312 215.628906 178.152344 214.679688 176.695312 C 212.839844 173.910156 212.804688 173.804688 213.910156 171.136719 C 215.171875 168.085938 215.207031 166.347656 214.03125 165.191406 C 213.457031 164.617188 213.445312 164.332031 213.996094 164.332031 C 214.574219 164.332031 215.382812 163.699219 216.328125 162.507812 C 217.414062 161.121094 218.835938 159.945312 219.292969 159.945312 C 219.378906 159.945312 219.433594 160 219.433594 160.105469 C 219.433594 160.246094 218.851562 161.175781 218.167969 162.175781 C 216.976562 163.804688 216.90625 164.140625 217.1875 166.03125 C 217.433594 167.769531 217.273438 168.558594 216.328125 171.015625 L 215.1875 173.910156 L 216.257812 175.398438 C 216.871094 176.222656 217.644531 177.855469 217.976562 178.996094 C 218.714844 181.554688 219.046875 181.855469 221.660156 182.660156 C 222.886719 183.027344 223.710938 183.257812 224.269531 183.257812 C 225.359375 183.257812 225.5 182.398438 225.832031 179.941406 C 226.164062 177.152344 225.917969 176.222656 224.359375 174.785156 C 222.886719 173.328125 222.851562 172.960938 224.148438 171.363281 C 225.164062 170.136719 225.5 168.242188 224.796875 167.875 C 224.585938 167.769531 224.339844 167.207031 224.269531 166.648438 C 224.148438 166.050781 223.902344 165.3125 223.746094 164.945312 C 223.535156 164.507812 223.621094 164.3125 224.113281 164.3125 C 226.078125 164.3125 225.796875 154.472656 223.710938 149.878906 C 223.21875 148.792969 223.0625 148.492188 223.324219 148.492188 C 223.449219 148.492188 223.640625 148.546875 223.921875 148.617188 C 224.042969 148.652344 224.148438 148.667969 224.253906 148.667969 C 224.902344 148.667969 225.058594 147.914062 225.394531 144.792969 C 225.726562 141.652344 224.480469 139.96875 221.886719 139.96875 C 221.273438 139.96875 220.570312 140.058594 219.800781 140.25 C 217.75 140.722656 217.503906 141.652344 218.851562 143.738281 C 219.605469 144.933594 219.871094 145.546875 219.710938 145.546875 C 219.554688 145.546875 219.0625 145.074219 218.292969 144.074219 C 216.519531 141.8125 215.171875 140.707031 213.59375 140.707031 C 212.171875 140.707031 210.558594 141.617188 208.28125 143.441406 L 205.753906 145.300781 C 206.40625 146.582031 206.648438 147.144531 206.386719 147.492188 C 206.160156 147.808594 205.753906 148.371094 205.5625 149.039062 C 205.683594 150.949219 205.246094 152.28125 204.125 153.230469 C 202.914062 154.648438 200.953125 155.738281 198.339844 156.261719 C 198.214844 156.296875 198.09375 156.28125 197.96875 156.296875 C 197.933594 156.773438 197.867188 157.246094 197.796875 157.71875 C 198.003906 158.316406 198.320312 158.527344 199.164062 158.527344 C 199.601562 158.527344 200.179688 158.472656 200.984375 158.367188 C 201.6875 158.296875 202.230469 158.261719 202.597656 158.261719 C 203.773438 158.261719 203.285156 158.613281 201.144531 159.261719 C 198.8125 159.945312 196.671875 162.332031 196.21875 163.402344 C 195.761719 164.472656 195.917969 166.613281 196.148438 167.121094 C 196.601562 168.121094 196.550781 168.417969 195.902344 169.3125 C 195.5 169.910156 195.078125 171.347656 194.953125 172.804688 C 194.8125 174.1875 194.746094 174.769531 194.621094 174.769531 C 194.535156 174.769531 194.410156 174.523438 194.21875 174.101562 C 193.5 172.46875 192.957031 171.734375 192.253906 171.734375 C 192.113281 171.734375 191.972656 171.785156 191.816406 171.839844 C 191.34375 172.363281 190.78125 172.925781 190.167969 173.347656 C 189.222656 175.90625 191.660156 181.117188 194.796875 182.308594 C 195.636719 182.625 196.164062 182.800781 196.480469 182.800781 C 196.867188 182.800781 196.9375 182.554688 196.882812 182.046875 C 196.847656 181.519531 197.128906 181.152344 197.777344 180.941406 C 198.09375 180.835938 198.285156 180.765625 198.425781 180.765625 C 198.65625 180.765625 198.636719 180.976562 198.480469 181.484375 C 198.074219 182.941406 198.601562 183.519531 201.582031 185.273438 C 203.441406 186.363281 204.582031 186.921875 205.125 186.921875 C 205.703125 186.921875 205.597656 186.273438 204.984375 184.941406 C 204.089844 182.941406 204.210938 181.75 205.878906 177.1875 L 207.386719 173.066406 L 206.648438 171.363281 C 206.246094 170.4375 205.667969 168.664062 205.351562 167.4375 C 205.070312 166.207031 204.617188 165.171875 204.371094 165.101562 C 203.722656 164.875 203.878906 164.277344 204.617188 164.277344 C 205.476562 164.277344 209.769531 160.050781 210.382812 158.597656 C 210.910156 157.296875 210.71875 155.367188 209.859375 153.808594 C 209.121094 152.511719 209.121094 151.140625 209.894531 150.546875 C 210.085938 150.40625 210.210938 150.316406 210.296875 150.316406 C 210.472656 150.316406 210.507812 150.597656 210.507812 151.246094 C 210.507812 152.582031 211.523438 154.632812 212.191406 154.632812 C 213.136719 154.632812 216.117188 152.703125 216.554688 151.84375 C 216.800781 151.316406 217.207031 150.914062 217.449219 150.914062 C 218.222656 150.914062 216.136719 154.035156 214.347656 155.597656 C 213.367188 156.421875 212.558594 157.386719 212.558594 157.753906 C 212.558594 158.859375 210.558594 162.175781 208.964844 163.613281 C 207.160156 165.3125 207.035156 166.648438 208.4375 169.332031 C 209.789062 171.925781 209.753906 174.222656 208.191406 177.453125 C 205.300781 183.574219 206.195312 185.90625 213.261719 190.921875 C 215.046875 192.148438 216.363281 192.726562 217.554688 192.726562 C 217.976562 192.726562 218.378906 192.660156 218.785156 192.519531 C 219.117188 192.414062 219.34375 192.34375 219.519531 192.34375 C 219.871094 192.34375 220.027344 192.605469 220.292969 193.308594 C 220.695312 194.359375 220.816406 194.65625 220.535156 194.65625 C 220.414062 194.65625 220.238281 194.605469 219.976562 194.535156 C 219.921875 194.535156 219.851562 194.515625 219.78125 194.515625 C 219.203125 194.515625 218.34375 195.097656 216.660156 196.585938 C 215.277344 197.816406 213.433594 199.148438 212.578125 199.550781 C 211.683594 199.953125 210.824219 200.585938 210.578125 200.917969 C 210.382812 201.234375 210.210938 201.375 210.070312 201.375 C 209.804688 201.375 209.664062 200.902344 209.875 200.148438 C 210.246094 198.816406 212.03125 197.027344 213.839844 196.183594 C 216.171875 195.113281 216.136719 193.589844 213.714844 192.464844 C 212.734375 192.027344 211.347656 191.203125 210.523438 190.640625 C 209.28125 189.746094 208.457031 189.34375 207.492188 189.34375 C 206.949219 189.34375 206.351562 189.464844 205.617188 189.710938 C 204.828125 189.957031 204.265625 190.097656 203.949219 190.097656 C 203.457031 190.097656 203.527344 189.800781 204.140625 189.203125 C 204.964844 188.378906 204.476562 187.90625 202.460938 187.570312 C 201.722656 187.414062 199.882812 186.640625 198.375 185.78125 L 195.585938 184.257812 L 191.957031 184.851562 C 190.378906 185.152344 188.921875 185.328125 188.363281 185.328125 C 188.222656 185.328125 188.132812 185.328125 188.117188 185.292969 C 187.992188 185.152344 188.117188 185.0625 188.363281 185.0625 C 188.605469 185.0625 189.34375 184.625 190.046875 184.097656 C 191.554688 182.941406 191.640625 181.871094 190.449219 179.574219 C 189.957031 178.679688 189.34375 177.277344 189.0625 176.417969 C 188.730469 175.347656 188.398438 174.820312 188.011719 174.820312 C 187.660156 174.820312 187.273438 175.292969 186.820312 176.222656 C 183.996094 182.011719 183.679688 191.289062 186.171875 195.746094 C 187.539062 198.269531 187.816406 199.023438 187.152344 199.023438 C 187.046875 199.023438 186.90625 199.007812 186.75 198.972656 C 186.574219 198.9375 186.433594 198.921875 186.292969 198.921875 C 185.75 198.921875 185.417969 199.289062 184.699219 200.535156 C 182.453125 204.355469 182.820312 206.585938 185.679688 206.585938 C 188.871094 206.621094 192.007812 208.480469 194.375 211.707031 C 194.988281 212.566406 195.847656 213.335938 196.253906 213.441406 C 197.078125 213.707031 197.320312 214.371094 196.585938 214.371094 C 196.304688 214.371094 196.21875 214.742188 196.425781 215.371094 C 196.902344 217.144531 199.003906 218.667969 200.601562 218.667969 C 200.917969 218.667969 201.195312 218.617188 201.460938 218.476562 C 201.984375 218.230469 202.355469 218.109375 202.5625 218.109375 C 203.144531 218.109375 202.632812 218.96875 201.089844 220.492188 C 199.09375 222.457031 199.164062 223.054688 201.707031 225.476562 C 204.003906 227.667969 205.054688 228 211.191406 228.472656 C 218.097656 229 219.203125 229.738281 213.734375 230.105469 C 211.925781 230.226562 209.664062 230.332031 208.351562 230.332031 C 208.140625 230.332031 207.964844 230.332031 207.808594 230.332031 C 207.738281 230.332031 207.667969 230.332031 207.597656 230.332031 C 205.210938 230.332031 205.054688 231 206.457031 234.5625 C 206.984375 236.015625 207.191406 237.191406 207.035156 238.277344 C 206.578125 241.066406 211.085938 244.136719 216.277344 244.699219 Z M 242 242.664062 C 238.808594 243.453125 235.722656 243.960938 232.390625 244.261719 L 232.390625 248.207031 C 236.230469 247.976562 239.910156 247.46875 243.453125 246.242188 C 244.503906 245.875 244.75 244.417969 244.417969 243.644531 C 244.015625 242.714844 243.050781 242.417969 242.015625 242.664062 Z M 252.5 233.597656 C 253.9375 232.578125 255.445312 231.386719 256.9375 230.054688 L 257.429688 229.683594 C 258.148438 229.140625 258.972656 228.28125 259.796875 227.265625 C 262.109375 224.773438 264.335938 221.808594 266.175781 218.25 C 266.652344 217.335938 266.300781 216.195312 265.371094 215.722656 C 264.441406 215.25 263.320312 215.601562 262.847656 216.53125 C 260.550781 220.949219 257.65625 224.351562 254.675781 227.054688 C 253.308594 228.140625 251.871094 229.175781 250.414062 230.191406 C 249.921875 229.964844 249.378906 229.824219 248.800781 229.824219 C 246.855469 229.824219 245.257812 231.332031 245.121094 233.246094 C 241.140625 235.121094 236.789062 236.316406 232.371094 236.753906 L 232.40625 240.613281 C 237.5625 240.136719 242.628906 239.050781 247.152344 236.839844 C 247.644531 237.085938 248.207031 237.226562 248.800781 237.226562 C 250.816406 237.226562 252.449219 235.613281 252.5 233.613281 Z M 232.40625 181.855469 L 232.40625 199.746094 C 236.667969 197.65625 238.261719 183.011719 232.40625 181.855469 Z M 250.378906 243.734375 C 255.0625 241.472656 259.304688 238.664062 262.898438 234.980469 C 263.636719 234.226562 263.179688 232.910156 262.546875 232.4375 C 261.882812 231.914062 260.621094 231.808594 259.917969 232.472656 C 256.480469 235.699219 252.765625 238.367188 248.433594 240.277344 C 247.347656 240.769531 247.082031 242.226562 247.554688 243.015625 C 248.171875 244.03125 249.238281 244.296875 250.378906 243.734375 Z M 221.78125 222.074219 C 222.148438 221.738281 218.1875 219.582031 216.257812 219.074219 C 212.699219 218.144531 211.402344 216.40625 210.578125 211.652344 C 210 208.179688 212.980469 205.496094 216.3125 205.496094 C 217.414062 205.496094 218.574219 205.796875 219.640625 206.445312 C 220.519531 206.972656 221.011719 207.234375 221.21875 207.234375 C 221.414062 207.234375 221.378906 207.003906 221.183594 206.566406 C 220.519531 204.953125 218.152344 204.007812 215.75 204.007812 C 214.453125 204.007812 213.136719 204.289062 212.101562 204.902344 C 211.101562 205.496094 210.175781 205.796875 209.296875 205.796875 C 207.160156 205.796875 205.457031 204.023438 204.511719 200.710938 C 204.175781 199.550781 204.039062 199.078125 203.878906 199.078125 C 203.773438 199.078125 203.667969 199.304688 203.476562 199.710938 C 203.214844 200.359375 203.019531 200.675781 202.582031 200.675781 C 202.144531 200.675781 201.460938 200.324219 200.214844 199.640625 C 197.96875 198.375 197.566406 197.605469 197.078125 193.886719 C 196.742188 191.0625 196.339844 190.429688 194.675781 189.765625 C 193.902344 189.464844 193.042969 189.289062 192.746094 189.289062 C 190.660156 189.519531 189.976562 189.730469 190.167969 190.027344 C 190.324219 190.21875 190.871094 190.359375 191.429688 190.359375 C 195.113281 190.359375 196.289062 194.078125 193.238281 196.007812 C 191.449219 197.113281 191.183594 197.640625 192.429688 197.640625 C 192.691406 197.640625 193.007812 197.621094 193.394531 197.570312 C 193.886719 197.5 194.253906 197.464844 194.535156 197.464844 C 195.269531 197.464844 195.464844 197.761719 196.042969 198.867188 C 196.691406 199.972656 197.480469 200.65625 199.074219 201.359375 C 200.214844 201.917969 201.773438 202.726562 202.425781 203.183594 C 203.125 203.671875 204.476562 204.445312 205.492188 204.972656 C 209.085938 206.796875 208.070312 208.566406 203.285156 208.863281 C 202.933594 208.882812 202.582031 208.898438 202.230469 208.898438 C 197.691406 208.898438 194.023438 207.109375 192.585938 204.113281 C 192.183594 203.304688 191.796875 202.882812 191.554688 202.882812 C 191.308594 202.882812 191.238281 203.269531 191.429688 204.023438 C 192.585938 208.375 196.65625 211.09375 201.496094 211.09375 C 202.476562 211.09375 203.492188 210.988281 204.511719 210.757812 C 204.984375 210.652344 205.421875 210.601562 205.824219 210.601562 C 208.15625 210.601562 209.175781 212.476562 209.175781 216.636719 C 209.175781 218.722656 209.050781 219.089844 207.914062 220.265625 C 206.949219 221.265625 206.683594 221.773438 206.984375 221.773438 C 207.226562 221.773438 207.859375 221.421875 208.804688 220.667969 C 209.980469 219.773438 210.628906 219.390625 211.277344 219.390625 C 211.664062 219.390625 212.066406 219.527344 212.578125 219.773438 C 213.558594 220.265625 220.886719 222.125 221.695312 222.125 C 221.730469 222.125 221.746094 222.125 221.765625 222.125 Z M 160.097656 154.421875 C 161.449219 154.371094 162.339844 153.351562 162.339844 151.894531 L 162.339844 122.761719 C 162.339844 122.761719 192.957031 122.796875 192.957031 122.796875 C 194.394531 122.746094 195.375 121.78125 195.375 120.464844 C 195.375 119.394531 194.570312 118.097656 193.167969 118.097656 L 159.835938 118.097656 C 158.359375 118.097656 157.660156 119.308594 157.660156 120.605469 L 157.660156 152.105469 C 157.660156 153.5625 158.886719 154.457031 160.097656 154.421875 Z M 160.0625 229.613281 C 159.117188 229.542969 157.675781 230.261719 157.675781 231.578125 L 157.675781 262.695312 C 157.675781 263.941406 158.625 265.097656 159.902344 265.097656 L 193.042969 265.097656 C 194.605469 265.097656 195.480469 263.746094 195.410156 262.625 C 195.324219 261.34375 194.394531 260.398438 192.972656 260.398438 L 162.359375 260.398438 C 162.359375 260.398438 162.339844 232.015625 162.339844 232.015625 C 162.339844 230.632812 161.308594 229.71875 160.0625 229.632812 Z M 241.332031 212.988281 C 242.171875 212.234375 242.382812 211.164062 241.789062 210.285156 C 241.261719 209.515625 240 209.128906 239.105469 209.777344 C 236.984375 211.320312 234.84375 212.566406 232.355469 213.390625 L 232.496094 217.371094 C 236.125 216.511719 238.808594 215.054688 241.332031 212.96875 Z M 200.496094 171.121094 C 200.496094 171.121094 200.371094 171.050781 200.320312 171.050781 C 199.511719 171.050781 199.25 175.609375 200.09375 177.3125 L 200.707031 178.644531 L 201.230469 175.890625 C 201.566406 174.292969 201.636719 172.804688 201.441406 172.363281 C 201.285156 171.925781 200.863281 171.363281 200.496094 171.101562 Z M 255.535156 147.652344 C 261.847656 152.265625 278.609375 164.488281 275.367188 198.710938 C 275.277344 199.726562 276.015625 200.621094 277.011719 200.710938 C 277.066406 200.710938 277.136719 200.710938 277.1875 200.710938 C 278.136719 200.710938 278.925781 199.988281 279.011719 199.042969 C 282.449219 162.734375 263.808594 149.140625 257.671875 144.667969 L 257.375 144.460938 C 256.550781 143.863281 255.410156 144.039062 254.796875 144.863281 C 254.203125 145.6875 254.378906 146.828125 255.203125 147.441406 L 255.5 147.667969 Z M 263.003906 204.304688 C 264.40625 199.199219 264.476562 195.445312 264.476562 195.289062 C 264.476562 194.273438 263.6875 193.449219 262.671875 193.429688 C 261.652344 193.378906 260.828125 194.21875 260.8125 195.238281 C 260.8125 195.273438 260.742188 198.710938 259.460938 203.339844 C 259.199219 204.320312 259.761719 205.339844 260.742188 205.601562 C 260.898438 205.65625 261.074219 205.671875 261.234375 205.671875 C 262.039062 205.671875 262.777344 205.128906 263.003906 204.320312 Z M 266.335938 212.898438 C 266.546875 212.96875 266.757812 213.023438 266.964844 213.023438 C 267.71875 213.023438 268.421875 212.566406 268.683594 211.8125 C 273.628906 198.410156 272.140625 185.046875 270.050781 176.277344 C 269.753906 174.628906 269.367188 173.015625 268.894531 171.46875 C 269.296875 170.875 269.542969 170.15625 269.542969 169.382812 C 269.542969 167.613281 268.300781 166.136719 266.652344 165.769531 C 262.039062 156.316406 253.902344 149.316406 243.785156 145.984375 C 243.191406 144.738281 241.929688 143.878906 240.457031 143.878906 C 239.648438 143.878906 238.914062 144.144531 238.296875 144.582031 C 236.386719 144.230469 234.40625 143.984375 232.390625 143.878906 L 232.390625 147.808594 C 233.878906 147.898438 235.371094 148.054688 236.824219 148.300781 C 237.160156 150 238.648438 151.28125 240.457031 151.28125 C 241.59375 151.28125 242.613281 150.773438 243.296875 149.964844 C 251.746094 152.949219 258.8125 158.859375 262.953125 167.050781 C 262.441406 167.683594 262.144531 168.488281 262.144531 169.367188 C 262.144531 171.242188 263.53125 172.785156 265.335938 173.03125 C 265.421875 173.3125 265.5625 173.714844 265.703125 174.171875 C 267.984375 182.167969 270.472656 196.359375 265.230469 210.515625 C 264.878906 211.460938 265.371094 212.53125 266.316406 212.882812 Z M 266.335938 212.898438 " clip-rule="nonzero"/></clipPath><linearGradient x1="-0.0000022637" gradientTransform="matrix(1.753395, 0, 0, 1.753967, 157.659954, 118.097166)" y1="41.900002" x2="81.84" gradientUnits="userSpaceOnUse" y2="41.900002" id="2716615021"><stop stop-opacity="1" stop-color="rgb(39.99939%, 100%, 79.998779%)" offset="0"/><stop stop-opacity="1" stop-color="rgb(39.842224%, 99.778748%, 80.076599%)" offset="0.00390625"/><stop stop-opacity="1" stop-color="rgb(39.686584%, 99.557495%, 80.155945%)" offset="0.0078125"/><stop stop-opacity="1" stop-color="rgb(39.529419%, 99.336243%, 80.233765%)" offset="0.0117187"/><stop stop-opacity="1" stop-color="rgb(39.373779%, 99.116516%, 80.311584%)" offset="0.015625"/><stop stop-opacity="1" stop-color="rgb(39.21814%, 98.895264%, 80.389404%)" offset="0.0195312"/><stop stop-opacity="1" stop-color="rgb(39.0625%, 98.675537%, 80.467224%)" offset="0.0234375"/><stop stop-opacity="1" stop-color="rgb(38.905334%, 98.454285%, 80.545044%)" offset="0.0273437"/><stop stop-opacity="1" stop-color="rgb(38.749695%, 98.234558%, 80.62439%)" offset="0.03125"/><stop stop-opacity="1" stop-color="rgb(38.592529%, 98.013306%, 80.702209%)" offset="0.0351562"/><stop stop-opacity="1" stop-color="rgb(38.43689%, 97.793579%, 80.780029%)" offset="0.0390625"/><stop stop-opacity="1" stop-color="rgb(38.279724%, 97.572327%, 80.857849%)" offset="0.0429687"/><stop stop-opacity="1" stop-color="rgb(38.124084%, 97.3526%, 80.937195%)" offset="0.046875"/><stop stop-opacity="1" stop-color="rgb(37.966919%, 97.131348%, 81.015015%)" offset="0.0507812"/><stop stop-opacity="1" stop-color="rgb(37.811279%, 96.911621%, 81.092834%)" offset="0.0546875"/><stop stop-opacity="1" stop-color="rgb(37.65564%, 96.690369%, 81.170654%)" offset="0.0585937"/><stop stop-opacity="1" stop-color="rgb(37.5%, 96.469116%, 81.248474%)" offset="0.0625"/><stop stop-opacity="1" stop-color="rgb(37.342834%, 96.247864%, 81.326294%)" offset="0.0664062"/><stop stop-opacity="1" stop-color="rgb(37.187195%, 96.028137%, 81.40564%)" offset="0.0703125"/><stop stop-opacity="1" stop-color="rgb(37.030029%, 95.806885%, 81.483459%)" offset="0.0742188"/><stop stop-opacity="1" stop-color="rgb(36.87439%, 95.587158%, 81.561279%)" offset="0.078125"/><stop stop-opacity="1" stop-color="rgb(36.717224%, 95.365906%, 81.639099%)" offset="0.0820312"/><stop stop-opacity="1" stop-color="rgb(36.561584%, 95.146179%, 81.718445%)" offset="0.0859375"/><stop stop-opacity="1" stop-color="rgb(36.404419%, 94.924927%, 81.796265%)" offset="0.0898437"/><stop stop-opacity="1" stop-color="rgb(36.248779%, 94.7052%, 81.874084%)" offset="0.09375"/><stop stop-opacity="1" stop-color="rgb(36.09314%, 94.483948%, 81.951904%)" offset="0.0976562"/><stop stop-opacity="1" stop-color="rgb(35.9375%, 94.264221%, 82.029724%)" offset="0.101562"/><stop stop-opacity="1" stop-color="rgb(35.780334%, 94.042969%, 82.107544%)" offset="0.105469"/><stop stop-opacity="1" stop-color="rgb(35.624695%, 93.823242%, 82.18689%)" offset="0.109375"/><stop stop-opacity="1" stop-color="rgb(35.467529%, 93.60199%, 82.264709%)" offset="0.113281"/><stop stop-opacity="1" stop-color="rgb(35.31189%, 93.382263%, 82.342529%)" offset="0.117187"/><stop stop-opacity="1" stop-color="rgb(35.154724%, 93.161011%, 82.420349%)" offset="0.121094"/><stop stop-opacity="1" stop-color="rgb(34.999084%, 92.939758%, 82.499695%)" offset="0.125"/><stop stop-opacity="1" stop-color="rgb(34.841919%, 92.718506%, 82.577515%)" offset="0.128906"/><stop stop-opacity="1" stop-color="rgb(34.686279%, 92.498779%, 82.655334%)" offset="0.132812"/><stop stop-opacity="1" stop-color="rgb(34.53064%, 92.277527%, 82.733154%)" offset="0.136719"/><stop stop-opacity="1" stop-color="rgb(34.375%, 92.0578%, 82.810974%)" offset="0.140625"/><stop stop-opacity="1" stop-color="rgb(34.217834%, 91.836548%, 82.888794%)" offset="0.144531"/><stop stop-opacity="1" stop-color="rgb(34.062195%, 91.616821%, 82.96814%)" offset="0.148437"/><stop stop-opacity="1" stop-color="rgb(33.905029%, 91.395569%, 83.045959%)" offset="0.152344"/><stop stop-opacity="1" stop-color="rgb(33.74939%, 91.175842%, 83.123779%)" offset="0.15625"/><stop stop-opacity="1" stop-color="rgb(33.592224%, 90.95459%, 83.201599%)" offset="0.160156"/><stop stop-opacity="1" stop-color="rgb(33.436584%, 90.734863%, 83.280945%)" offset="0.164062"/><stop stop-opacity="1" stop-color="rgb(33.279419%, 90.513611%, 83.358765%)" offset="0.167969"/><stop stop-opacity="1" stop-color="rgb(33.123779%, 90.293884%, 83.436584%)" offset="0.171875"/><stop stop-opacity="1" stop-color="rgb(32.96814%, 90.072632%, 83.514404%)" offset="0.175781"/><stop stop-opacity="1" stop-color="rgb(32.8125%, 89.852905%, 83.592224%)" offset="0.179687"/><stop stop-opacity="1" stop-color="rgb(32.655334%, 89.631653%, 83.670044%)" offset="0.183594"/><stop stop-opacity="1" stop-color="rgb(32.499695%, 89.4104%, 83.74939%)" offset="0.1875"/><stop stop-opacity="1" stop-color="rgb(32.342529%, 89.189148%, 83.827209%)" offset="0.191406"/><stop stop-opacity="1" stop-color="rgb(32.18689%, 88.969421%, 83.905029%)" offset="0.195312"/><stop stop-opacity="1" stop-color="rgb(32.029724%, 88.748169%, 83.982849%)" offset="0.199219"/><stop stop-opacity="1" stop-color="rgb(31.874084%, 88.528442%, 84.062195%)" offset="0.203125"/><stop stop-opacity="1" stop-color="rgb(31.716919%, 88.30719%, 84.140015%)" offset="0.207031"/><stop stop-opacity="1" stop-color="rgb(31.561279%, 88.087463%, 84.217834%)" offset="0.210937"/><stop stop-opacity="1" stop-color="rgb(31.40564%, 87.866211%, 84.295654%)" offset="0.214844"/><stop stop-opacity="1" stop-color="rgb(31.25%, 87.646484%, 84.373474%)" offset="0.21875"/><stop stop-opacity="1" stop-color="rgb(31.092834%, 87.425232%, 84.451294%)" offset="0.222656"/><stop stop-opacity="1" stop-color="rgb(30.937195%, 87.205505%, 84.53064%)" offset="0.226562"/><stop stop-opacity="1" stop-color="rgb(30.780029%, 86.984253%, 84.608459%)" offset="0.230469"/><stop stop-opacity="1" stop-color="rgb(30.62439%, 86.764526%, 84.686279%)" offset="0.234375"/><stop stop-opacity="1" stop-color="rgb(30.467224%, 86.543274%, 84.764099%)" offset="0.238281"/><stop stop-opacity="1" stop-color="rgb(30.311584%, 86.323547%, 84.843445%)" offset="0.242187"/><stop stop-opacity="1" stop-color="rgb(30.154419%, 86.102295%, 84.921265%)" offset="0.246094"/><stop stop-opacity="1" stop-color="rgb(29.998779%, 85.881042%, 84.999084%)" offset="0.25"/><stop stop-opacity="1" stop-color="rgb(29.84314%, 85.65979%, 85.076904%)" offset="0.253906"/><stop stop-opacity="1" stop-color="rgb(29.6875%, 85.440063%, 85.154724%)" offset="0.257812"/><stop stop-opacity="1" stop-color="rgb(29.530334%, 85.218811%, 85.232544%)" offset="0.261719"/><stop stop-opacity="1" stop-color="rgb(29.374695%, 84.999084%, 85.31189%)" offset="0.265625"/><stop stop-opacity="1" stop-color="rgb(29.217529%, 84.777832%, 85.389709%)" offset="0.269531"/><stop stop-opacity="1" stop-color="rgb(29.06189%, 84.558105%, 85.467529%)" offset="0.273437"/><stop stop-opacity="1" stop-color="rgb(28.904724%, 84.336853%, 85.545349%)" offset="0.277344"/><stop stop-opacity="1" stop-color="rgb(28.749084%, 84.117126%, 85.624695%)" offset="0.28125"/><stop stop-opacity="1" stop-color="rgb(28.591919%, 83.895874%, 85.702515%)" offset="0.285156"/><stop stop-opacity="1" stop-color="rgb(28.436279%, 83.676147%, 85.780334%)" offset="0.289062"/><stop stop-opacity="1" stop-color="rgb(28.28064%, 83.454895%, 85.858154%)" offset="0.292969"/><stop stop-opacity="1" stop-color="rgb(28.125%, 83.235168%, 85.935974%)" offset="0.296875"/><stop stop-opacity="1" stop-color="rgb(27.967834%, 83.013916%, 86.013794%)" offset="0.300781"/><stop stop-opacity="1" stop-color="rgb(27.812195%, 82.794189%, 86.09314%)" offset="0.304687"/><stop stop-opacity="1" stop-color="rgb(27.655029%, 82.572937%, 86.170959%)" offset="0.308594"/><stop stop-opacity="1" stop-color="rgb(27.49939%, 82.351685%, 86.248779%)" offset="0.3125"/><stop stop-opacity="1" stop-color="rgb(27.342224%, 82.130432%, 86.326599%)" offset="0.316406"/><stop stop-opacity="1" stop-color="rgb(27.186584%, 81.910706%, 86.405945%)" offset="0.320312"/><stop stop-opacity="1" stop-color="rgb(27.029419%, 81.689453%, 86.483765%)" offset="0.324219"/><stop stop-opacity="1" stop-color="rgb(26.873779%, 81.469727%, 86.561584%)" offset="0.328125"/><stop stop-opacity="1" stop-color="rgb(26.71814%, 81.248474%, 86.639404%)" offset="0.332031"/><stop stop-opacity="1" stop-color="rgb(26.5625%, 81.028748%, 86.717224%)" offset="0.335937"/><stop stop-opacity="1" stop-color="rgb(26.405334%, 80.807495%, 86.795044%)" offset="0.339844"/><stop stop-opacity="1" stop-color="rgb(26.249695%, 80.587769%, 86.87439%)" offset="0.34375"/><stop stop-opacity="1" stop-color="rgb(26.092529%, 80.366516%, 86.952209%)" offset="0.347656"/><stop stop-opacity="1" stop-color="rgb(25.93689%, 80.14679%, 87.030029%)" offset="0.351562"/><stop stop-opacity="1" stop-color="rgb(25.779724%, 79.925537%, 87.107849%)" offset="0.355469"/><stop stop-opacity="1" stop-color="rgb(25.624084%, 79.705811%, 87.187195%)" offset="0.359375"/><stop stop-opacity="1" stop-color="rgb(25.466919%, 79.484558%, 87.265015%)" offset="0.363281"/><stop stop-opacity="1" stop-color="rgb(25.311279%, 79.264832%, 87.342834%)" offset="0.367187"/><stop stop-opacity="1" stop-color="rgb(25.154114%, 79.043579%, 87.420654%)" offset="0.371094"/><stop stop-opacity="1" stop-color="rgb(24.998474%, 78.822327%, 87.5%)" offset="0.375"/><stop stop-opacity="1" stop-color="rgb(24.842834%, 78.601074%, 87.57782%)" offset="0.378906"/><stop stop-opacity="1" stop-color="rgb(24.687195%, 78.381348%, 87.65564%)" offset="0.382812"/><stop stop-opacity="1" stop-color="rgb(24.530029%, 78.160095%, 87.733459%)" offset="0.386719"/><stop stop-opacity="1" stop-color="rgb(24.37439%, 77.940369%, 87.811279%)" offset="0.390625"/><stop stop-opacity="1" stop-color="rgb(24.217224%, 77.719116%, 87.889099%)" offset="0.394531"/><stop stop-opacity="1" stop-color="rgb(24.061584%, 77.49939%, 87.968445%)" offset="0.398437"/><stop stop-opacity="1" stop-color="rgb(23.904419%, 77.278137%, 88.046265%)" offset="0.402344"/><stop stop-opacity="1" stop-color="rgb(23.748779%, 77.058411%, 88.124084%)" offset="0.40625"/><stop stop-opacity="1" stop-color="rgb(23.591614%, 76.837158%, 88.201904%)" offset="0.410156"/><stop stop-opacity="1" stop-color="rgb(23.435974%, 76.617432%, 88.28125%)" offset="0.414062"/><stop stop-opacity="1" stop-color="rgb(23.280334%, 76.396179%, 88.35907%)" offset="0.417969"/><stop stop-opacity="1" stop-color="rgb(23.124695%, 76.176453%, 88.43689%)" offset="0.421875"/><stop stop-opacity="1" stop-color="rgb(22.967529%, 75.9552%, 88.514709%)" offset="0.425781"/><stop stop-opacity="1" stop-color="rgb(22.81189%, 75.735474%, 88.592529%)" offset="0.429688"/><stop stop-opacity="1" stop-color="rgb(22.654724%, 75.514221%, 88.670349%)" offset="0.433594"/><stop stop-opacity="1" stop-color="rgb(22.499084%, 75.292969%, 88.749695%)" offset="0.4375"/><stop stop-opacity="1" stop-color="rgb(22.341919%, 75.071716%, 88.827515%)" offset="0.441406"/><stop stop-opacity="1" stop-color="rgb(22.186279%, 74.85199%, 88.905334%)" offset="0.445312"/><stop stop-opacity="1" stop-color="rgb(22.029114%, 74.630737%, 88.983154%)" offset="0.449219"/><stop stop-opacity="1" stop-color="rgb(21.873474%, 74.411011%, 89.0625%)" offset="0.453125"/><stop stop-opacity="1" stop-color="rgb(21.717834%, 74.189758%, 89.14032%)" offset="0.457031"/><stop stop-opacity="1" stop-color="rgb(21.562195%, 73.970032%, 89.21814%)" offset="0.460938"/><stop stop-opacity="1" stop-color="rgb(21.405029%, 73.748779%, 89.295959%)" offset="0.464844"/><stop stop-opacity="1" stop-color="rgb(21.24939%, 73.529053%, 89.373779%)" offset="0.46875"/><stop stop-opacity="1" stop-color="rgb(21.092224%, 73.3078%, 89.451599%)" offset="0.472656"/><stop stop-opacity="1" stop-color="rgb(20.936584%, 73.088074%, 89.530945%)" offset="0.476562"/><stop stop-opacity="1" stop-color="rgb(20.779419%, 72.866821%, 89.608765%)" offset="0.480469"/><stop stop-opacity="1" stop-color="rgb(20.623779%, 72.647095%, 89.686584%)" offset="0.484375"/><stop stop-opacity="1" stop-color="rgb(20.466614%, 72.425842%, 89.764404%)" offset="0.488281"/><stop stop-opacity="1" stop-color="rgb(20.310974%, 72.206116%, 89.84375%)" offset="0.492188"/><stop stop-opacity="1" stop-color="rgb(20.155334%, 71.984863%, 89.92157%)" offset="0.496094"/><stop stop-opacity="1" stop-color="rgb(19.999695%, 71.763611%, 89.99939%)" offset="0.5"/><stop stop-opacity="1" stop-color="rgb(19.842529%, 71.542358%, 90.077209%)" offset="0.503906"/><stop stop-opacity="1" stop-color="rgb(19.68689%, 71.322632%, 90.155029%)" offset="0.507812"/><stop stop-opacity="1" stop-color="rgb(19.529724%, 71.101379%, 90.232849%)" offset="0.511719"/><stop stop-opacity="1" stop-color="rgb(19.374084%, 70.881653%, 90.312195%)" offset="0.515625"/><stop stop-opacity="1" stop-color="rgb(19.216919%, 70.6604%, 90.390015%)" offset="0.519531"/><stop stop-opacity="1" stop-color="rgb(19.061279%, 70.440674%, 90.467834%)" offset="0.523437"/><stop stop-opacity="1" stop-color="rgb(18.904114%, 70.219421%, 90.545654%)" offset="0.527344"/><stop stop-opacity="1" stop-color="rgb(18.748474%, 69.999695%, 90.625%)" offset="0.53125"/><stop stop-opacity="1" stop-color="rgb(18.592834%, 69.778442%, 90.70282%)" offset="0.535156"/><stop stop-opacity="1" stop-color="rgb(18.437195%, 69.558716%, 90.78064%)" offset="0.539062"/><stop stop-opacity="1" stop-color="rgb(18.280029%, 69.337463%, 90.858459%)" offset="0.542969"/><stop stop-opacity="1" stop-color="rgb(18.12439%, 69.117737%, 90.936279%)" offset="0.546875"/><stop stop-opacity="1" stop-color="rgb(17.967224%, 68.896484%, 91.014099%)" offset="0.550781"/><stop stop-opacity="1" stop-color="rgb(17.811584%, 68.676758%, 91.093445%)" offset="0.554687"/><stop stop-opacity="1" stop-color="rgb(17.654419%, 68.455505%, 91.171265%)" offset="0.558594"/><stop stop-opacity="1" stop-color="rgb(17.498779%, 68.234253%, 91.249084%)" offset="0.5625"/><stop stop-opacity="1" stop-color="rgb(17.341614%, 68.013%, 91.326904%)" offset="0.566406"/><stop stop-opacity="1" stop-color="rgb(17.185974%, 67.793274%, 91.40625%)" offset="0.570312"/><stop stop-opacity="1" stop-color="rgb(17.030334%, 67.572021%, 91.48407%)" offset="0.574219"/><stop stop-opacity="1" stop-color="rgb(16.874695%, 67.352295%, 91.56189%)" offset="0.578125"/><stop stop-opacity="1" stop-color="rgb(16.717529%, 67.131042%, 91.639709%)" offset="0.582031"/><stop stop-opacity="1" stop-color="rgb(16.56189%, 66.911316%, 91.717529%)" offset="0.585937"/><stop stop-opacity="1" stop-color="rgb(16.404724%, 66.690063%, 91.795349%)" offset="0.589844"/><stop stop-opacity="1" stop-color="rgb(16.249084%, 66.470337%, 91.874695%)" offset="0.59375"/><stop stop-opacity="1" stop-color="rgb(16.091919%, 66.249084%, 91.952515%)" offset="0.597656"/><stop stop-opacity="1" stop-color="rgb(15.936279%, 66.029358%, 92.030334%)" offset="0.601562"/><stop stop-opacity="1" stop-color="rgb(15.779114%, 65.808105%, 92.108154%)" offset="0.605469"/><stop stop-opacity="1" stop-color="rgb(15.623474%, 65.588379%, 92.1875%)" offset="0.609375"/><stop stop-opacity="1" stop-color="rgb(15.467834%, 65.367126%, 92.26532%)" offset="0.613281"/><stop stop-opacity="1" stop-color="rgb(15.312195%, 65.1474%, 92.34314%)" offset="0.617187"/><stop stop-opacity="1" stop-color="rgb(15.155029%, 64.926147%, 92.420959%)" offset="0.621094"/><stop stop-opacity="1" stop-color="rgb(14.99939%, 64.704895%, 92.498779%)" offset="0.625"/><stop stop-opacity="1" stop-color="rgb(14.842224%, 64.483643%, 92.576599%)" offset="0.628906"/><stop stop-opacity="1" stop-color="rgb(14.686584%, 64.263916%, 92.655945%)" offset="0.632812"/><stop stop-opacity="1" stop-color="rgb(14.529419%, 64.042664%, 92.733765%)" offset="0.636719"/><stop stop-opacity="1" stop-color="rgb(14.373779%, 63.822937%, 92.811584%)" offset="0.640625"/><stop stop-opacity="1" stop-color="rgb(14.216614%, 63.601685%, 92.889404%)" offset="0.644531"/><stop stop-opacity="1" stop-color="rgb(14.060974%, 63.381958%, 92.96875%)" offset="0.648437"/><stop stop-opacity="1" stop-color="rgb(13.905334%, 63.160706%, 93.04657%)" offset="0.652344"/><stop stop-opacity="1" stop-color="rgb(13.749695%, 62.940979%, 93.12439%)" offset="0.65625"/><stop stop-opacity="1" stop-color="rgb(13.592529%, 62.719727%, 93.202209%)" offset="0.660156"/><stop stop-opacity="1" stop-color="rgb(13.43689%, 62.5%, 93.280029%)" offset="0.664062"/><stop stop-opacity="1" stop-color="rgb(13.279724%, 62.278748%, 93.357849%)" offset="0.667969"/><stop stop-opacity="1" stop-color="rgb(13.124084%, 62.059021%, 93.437195%)" offset="0.671875"/><stop stop-opacity="1" stop-color="rgb(12.966919%, 61.837769%, 93.515015%)" offset="0.675781"/><stop stop-opacity="1" stop-color="rgb(12.811279%, 61.618042%, 93.592834%)" offset="0.679687"/><stop stop-opacity="1" stop-color="rgb(12.654114%, 61.39679%, 93.670654%)" offset="0.683594"/><stop stop-opacity="1" stop-color="rgb(12.498474%, 61.175537%, 93.75%)" offset="0.6875"/><stop stop-opacity="1" stop-color="rgb(12.342834%, 60.954285%, 93.82782%)" offset="0.691406"/><stop stop-opacity="1" stop-color="rgb(12.187195%, 60.734558%, 93.90564%)" offset="0.695312"/><stop stop-opacity="1" stop-color="rgb(12.030029%, 60.513306%, 93.983459%)" offset="0.699219"/><stop stop-opacity="1" stop-color="rgb(11.87439%, 60.293579%, 94.061279%)" offset="0.703125"/><stop stop-opacity="1" stop-color="rgb(11.717224%, 60.072327%, 94.139099%)" offset="0.707031"/><stop stop-opacity="1" stop-color="rgb(11.561584%, 59.8526%, 94.218445%)" offset="0.710937"/><stop stop-opacity="1" stop-color="rgb(11.404419%, 59.631348%, 94.296265%)" offset="0.714844"/><stop stop-opacity="1" stop-color="rgb(11.248779%, 59.411621%, 94.374084%)" offset="0.71875"/><stop stop-opacity="1" stop-color="rgb(11.091614%, 59.190369%, 94.451904%)" offset="0.722656"/><stop stop-opacity="1" stop-color="rgb(10.935974%, 58.970642%, 94.53125%)" offset="0.726562"/><stop stop-opacity="1" stop-color="rgb(10.780334%, 58.74939%, 94.60907%)" offset="0.730469"/><stop stop-opacity="1" stop-color="rgb(10.624695%, 58.529663%, 94.68689%)" offset="0.734375"/><stop stop-opacity="1" stop-color="rgb(10.467529%, 58.308411%, 94.764709%)" offset="0.738281"/><stop stop-opacity="1" stop-color="rgb(10.31189%, 58.087158%, 94.842529%)" offset="0.742187"/><stop stop-opacity="1" stop-color="rgb(10.154724%, 57.865906%, 94.920349%)" offset="0.746094"/><stop stop-opacity="1" stop-color="rgb(9.999084%, 57.646179%, 94.999695%)" offset="0.75"/><stop stop-opacity="1" stop-color="rgb(9.841919%, 57.424927%, 95.077515%)" offset="0.753906"/><stop stop-opacity="1" stop-color="rgb(9.686279%, 57.2052%, 95.155334%)" offset="0.757812"/><stop stop-opacity="1" stop-color="rgb(9.529114%, 56.983948%, 95.233154%)" offset="0.761719"/><stop stop-opacity="1" stop-color="rgb(9.373474%, 56.764221%, 95.3125%)" offset="0.765625"/><stop stop-opacity="1" stop-color="rgb(9.217834%, 56.542969%, 95.39032%)" offset="0.769531"/><stop stop-opacity="1" stop-color="rgb(9.062195%, 56.323242%, 95.46814%)" offset="0.773437"/><stop stop-opacity="1" stop-color="rgb(8.905029%, 56.10199%, 95.545959%)" offset="0.777344"/><stop stop-opacity="1" stop-color="rgb(8.74939%, 55.882263%, 95.623779%)" offset="0.78125"/><stop stop-opacity="1" stop-color="rgb(8.592224%, 55.661011%, 95.701599%)" offset="0.785156"/><stop stop-opacity="1" stop-color="rgb(8.436584%, 55.441284%, 95.780945%)" offset="0.789062"/><stop stop-opacity="1" stop-color="rgb(8.279419%, 55.220032%, 95.858765%)" offset="0.792969"/><stop stop-opacity="1" stop-color="rgb(8.123779%, 55.000305%, 95.936584%)" offset="0.796875"/><stop stop-opacity="1" stop-color="rgb(7.966614%, 54.779053%, 96.014404%)" offset="0.800781"/><stop stop-opacity="1" stop-color="rgb(7.810974%, 54.5578%, 96.09375%)" offset="0.804687"/><stop stop-opacity="1" stop-color="rgb(7.655334%, 54.336548%, 96.17157%)" offset="0.808594"/><stop stop-opacity="1" stop-color="rgb(7.499695%, 54.116821%, 96.24939%)" offset="0.8125"/><stop stop-opacity="1" stop-color="rgb(7.342529%, 53.895569%, 96.327209%)" offset="0.816406"/><stop stop-opacity="1" stop-color="rgb(7.18689%, 53.675842%, 96.405029%)" offset="0.820312"/><stop stop-opacity="1" stop-color="rgb(7.029724%, 53.45459%, 96.482849%)" offset="0.824219"/><stop stop-opacity="1" stop-color="rgb(6.874084%, 53.234863%, 96.562195%)" offset="0.828125"/><stop stop-opacity="1" stop-color="rgb(6.716919%, 53.013611%, 96.640015%)" offset="0.832031"/><stop stop-opacity="1" stop-color="rgb(6.561279%, 52.793884%, 96.717834%)" offset="0.835938"/><stop stop-opacity="1" stop-color="rgb(6.404114%, 52.572632%, 96.795654%)" offset="0.839844"/><stop stop-opacity="1" stop-color="rgb(6.248474%, 52.352905%, 96.875%)" offset="0.84375"/><stop stop-opacity="1" stop-color="rgb(6.092834%, 52.131653%, 96.95282%)" offset="0.847656"/><stop stop-opacity="1" stop-color="rgb(5.937195%, 51.911926%, 97.03064%)" offset="0.851562"/><stop stop-opacity="1" stop-color="rgb(5.780029%, 51.690674%, 97.108459%)" offset="0.855469"/><stop stop-opacity="1" stop-color="rgb(5.62439%, 51.470947%, 97.186279%)" offset="0.859375"/><stop stop-opacity="1" stop-color="rgb(5.467224%, 51.249695%, 97.264099%)" offset="0.863281"/><stop stop-opacity="1" stop-color="rgb(5.311584%, 51.028442%, 97.343445%)" offset="0.867188"/><stop stop-opacity="1" stop-color="rgb(5.154419%, 50.80719%, 97.421265%)" offset="0.871094"/><stop stop-opacity="1" stop-color="rgb(4.998779%, 50.587463%, 97.499084%)" offset="0.875"/><stop stop-opacity="1" stop-color="rgb(4.841614%, 50.366211%, 97.576904%)" offset="0.878906"/><stop stop-opacity="1" stop-color="rgb(4.685974%, 50.146484%, 97.65625%)" offset="0.882812"/><stop stop-opacity="1" stop-color="rgb(4.530334%, 49.925232%, 97.73407%)" offset="0.886719"/><stop stop-opacity="1" stop-color="rgb(4.374695%, 49.705505%, 97.81189%)" offset="0.890625"/><stop stop-opacity="1" stop-color="rgb(4.217529%, 49.484253%, 97.889709%)" offset="0.894531"/><stop stop-opacity="1" stop-color="rgb(4.06189%, 49.264526%, 97.967529%)" offset="0.898438"/><stop stop-opacity="1" stop-color="rgb(3.904724%, 49.043274%, 98.045349%)" offset="0.902344"/><stop stop-opacity="1" stop-color="rgb(3.749084%, 48.823547%, 98.124695%)" offset="0.90625"/><stop stop-opacity="1" stop-color="rgb(3.591919%, 48.602295%, 98.202515%)" offset="0.910156"/><stop stop-opacity="1" stop-color="rgb(3.436279%, 48.382568%, 98.280334%)" offset="0.914062"/><stop stop-opacity="1" stop-color="rgb(3.279114%, 48.161316%, 98.358154%)" offset="0.917969"/><stop stop-opacity="1" stop-color="rgb(3.123474%, 47.941589%, 98.4375%)" offset="0.921875"/><stop stop-opacity="1" stop-color="rgb(2.967834%, 47.720337%, 98.51532%)" offset="0.925781"/><stop stop-opacity="1" stop-color="rgb(2.812195%, 47.499084%, 98.59314%)" offset="0.929688"/><stop stop-opacity="1" stop-color="rgb(2.655029%, 47.277832%, 98.670959%)" offset="0.933594"/><stop stop-opacity="1" stop-color="rgb(2.49939%, 47.058105%, 98.748779%)" offset="0.9375"/><stop stop-opacity="1" stop-color="rgb(2.342224%, 46.836853%, 98.826599%)" offset="0.941406"/><stop stop-opacity="1" stop-color="rgb(2.186584%, 46.617126%, 98.905945%)" offset="0.945312"/><stop stop-opacity="1" stop-color="rgb(2.029419%, 46.395874%, 98.983765%)" offset="0.949219"/><stop stop-opacity="1" stop-color="rgb(1.873779%, 46.176147%, 99.061584%)" offset="0.953125"/><stop stop-opacity="1" stop-color="rgb(1.716614%, 45.954895%, 99.139404%)" offset="0.957031"/><stop stop-opacity="1" stop-color="rgb(1.560974%, 45.735168%, 99.21875%)" offset="0.960937"/><stop stop-opacity="1" stop-color="rgb(1.405334%, 45.513916%, 99.29657%)" offset="0.964844"/><stop stop-opacity="1" stop-color="rgb(1.249695%, 45.294189%, 99.37439%)" offset="0.96875"/><stop stop-opacity="1" stop-color="rgb(1.092529%, 45.072937%, 99.452209%)" offset="0.972656"/><stop stop-opacity="1" stop-color="rgb(0.93689%, 44.85321%, 99.530029%)" offset="0.976562"/><stop stop-opacity="1" stop-color="rgb(0.779724%, 44.631958%, 99.607849%)" offset="0.980469"/><stop stop-opacity="1" stop-color="rgb(0.624084%, 44.412231%, 99.687195%)" offset="0.984375"/><stop stop-opacity="1" stop-color="rgb(0.466919%, 44.190979%, 99.765015%)" offset="0.988281"/><stop stop-opacity="1" stop-color="rgb(0.311279%, 43.969727%, 99.842834%)" offset="0.992187"/><stop stop-opacity="1" stop-color="rgb(0.15564%, 43.748474%, 99.920654%)" offset="0.996094"/><stop stop-opacity="1" stop-color="rgb(0%, 43.528748%, 100%)" offset="1"/></linearGradient></defs><rect x="-96" width="1152" fill="#ffffff" y="-47.999998" height="575.99998" fill-opacity="1"/><rect x="-96" width="1152" fill="#ffffff" y="-47.999998" height="575.99998" fill-opacity="1"/><path fill="#030e42" d="M 357.214844 220.6875 C 355.234375 220.6875 353.445312 220.214844 351.832031 219.25 C 350.21875 218.285156 348.921875 217.003906 347.957031 215.371094 C 346.992188 213.757812 346.519531 211.953125 346.519531 209.988281 L 346.519531 172.121094 C 346.519531 170.136719 346.992188 168.347656 347.957031 166.734375 C 348.921875 165.121094 350.199219 163.824219 351.832031 162.859375 C 353.445312 161.894531 355.25 161.421875 357.214844 161.421875 L 394.980469 161.421875 C 396.964844 161.421875 398.769531 161.894531 400.417969 162.859375 C 402.066406 163.824219 403.363281 165.101562 404.328125 166.734375 C 405.292969 168.347656 405.765625 170.15625 405.765625 172.121094 L 405.765625 175.664062 L 396.789062 175.664062 L 396.789062 172.363281 C 396.789062 171.820312 396.59375 171.332031 396.210938 170.925781 C 395.824219 170.523438 395.332031 170.3125 394.738281 170.3125 L 357.460938 170.3125 C 356.914062 170.3125 356.425781 170.523438 356.023438 170.925781 C 355.617188 171.332031 355.40625 171.820312 355.40625 172.363281 L 355.40625 209.742188 C 355.40625 210.285156 355.617188 210.777344 356.023438 211.179688 C 356.425781 211.582031 356.914062 211.792969 357.460938 211.792969 L 394.738281 211.792969 C 395.332031 211.792969 395.839844 211.582031 396.210938 211.179688 C 396.59375 210.777344 396.789062 210.285156 396.789062 209.742188 L 396.789062 197.148438 L 382.796875 197.148438 L 382.796875 188.167969 L 405.746094 188.167969 L 405.746094 209.988281 C 405.746094 211.96875 405.273438 213.757812 404.308594 215.371094 C 403.347656 216.984375 402.046875 218.285156 400.398438 219.25 C 398.75 220.214844 396.945312 220.6875 394.964844 220.6875 L 357.195312 220.6875 Z M 357.214844 220.6875 " fill-opacity="1" fill-rule="nonzero"/><path fill="#030e42" d="M 421.386719 219.195312 C 419.792969 218.214844 418.511719 216.914062 417.511719 215.320312 C 416.53125 213.722656 416.039062 211.953125 416.039062 209.96875 L 416.039062 183.625 C 416.039062 181.644531 416.53125 179.871094 417.511719 178.277344 C 418.496094 176.679688 419.792969 175.398438 421.386719 174.398438 C 422.984375 173.417969 424.753906 172.925781 426.734375 172.925781 L 453.894531 172.925781 C 455.878906 172.925781 457.664062 173.398438 459.277344 174.363281 C 460.890625 175.328125 462.191406 176.628906 463.152344 178.277344 C 464.117188 179.925781 464.59375 181.714844 464.59375 183.625 L 464.59375 201.234375 L 424.929688 201.234375 L 424.929688 209.707031 C 424.929688 210.25 425.140625 210.742188 425.542969 211.144531 C 425.945312 211.546875 426.4375 211.757812 426.980469 211.757812 L 464.59375 211.757812 L 464.59375 220.652344 L 426.734375 220.652344 C 424.753906 220.652344 422.984375 220.160156 421.386719 219.179688 Z M 424.929688 192.9375 L 455.632812 192.9375 L 455.632812 183.886719 C 455.632812 183.34375 455.4375 182.855469 455.054688 182.449219 C 454.667969 182.046875 454.195312 181.835938 453.652344 181.835938 L 426.980469 181.835938 C 426.4375 181.835938 425.945312 182.046875 425.542969 182.449219 C 425.140625 182.855469 424.929688 183.34375 424.929688 183.886719 Z M 424.929688 192.9375 " fill-opacity="1" fill-rule="nonzero"/><path fill="#030e42" d="M 474.882812 220.6875 L 474.882812 172.945312 L 512.738281 172.945312 C 514.722656 172.945312 516.511719 173.433594 518.121094 174.417969 C 519.734375 175.398438 521.035156 176.695312 521.996094 178.292969 C 522.960938 179.890625 523.4375 181.660156 523.4375 183.644531 L 523.4375 220.6875 L 514.546875 220.6875 L 514.546875 183.886719 C 514.546875 183.34375 514.335938 182.855469 513.933594 182.449219 C 513.527344 182.046875 513.039062 181.835938 512.496094 181.835938 L 485.824219 181.835938 C 485.28125 181.835938 484.789062 182.046875 484.386719 182.449219 C 483.984375 182.855469 483.773438 183.34375 483.773438 183.886719 L 483.773438 220.6875 Z M 474.882812 220.6875 " fill-opacity="1" fill-rule="nonzero"/><path fill="#030e42" d="M 539.355469 219.160156 C 537.742188 218.144531 536.445312 216.808594 535.480469 215.125 C 534.515625 213.460938 534.042969 211.652344 534.042969 209.742188 L 534.042969 172.292969 C 534.042969 170.3125 534.515625 168.507812 535.480469 166.859375 C 536.445312 165.207031 537.726562 163.894531 539.355469 162.910156 C 540.96875 161.929688 542.777344 161.4375 544.738281 161.4375 L 582.59375 161.4375 C 584.507812 161.4375 586.277344 161.929688 587.90625 162.910156 C 589.519531 163.894531 590.835938 165.207031 591.816406 166.859375 C 592.800781 168.507812 593.289062 170.3125 593.289062 172.292969 L 593.289062 209.742188 C 593.289062 211.671875 592.800781 213.460938 591.816406 215.125 C 590.835938 216.808594 589.519531 218.144531 587.90625 219.160156 C 586.296875 220.179688 584.523438 220.6875 582.59375 220.6875 L 544.738281 220.6875 C 542.757812 220.6875 540.96875 220.179688 539.355469 219.160156 Z M 542.933594 202.324219 L 581.367188 170.46875 L 545.003906 170.46875 C 544.457031 170.46875 543.96875 170.679688 543.566406 171.085938 C 543.160156 171.488281 542.949219 171.980469 542.949219 172.523438 L 542.949219 202.324219 Z M 545.898438 211.460938 L 582.351562 211.460938 C 582.894531 211.460938 583.382812 211.269531 583.789062 210.882812 C 584.191406 210.496094 584.402344 210.039062 584.402344 209.480469 L 584.402344 179.589844 L 545.898438 211.441406 Z M 545.898438 211.460938 " fill-opacity="1" fill-rule="nonzero"/><path fill="#030e42" d="M 614.613281 220.6875 C 612.683594 220.6875 610.914062 220.214844 609.265625 219.25 C 607.617188 218.285156 606.320312 217.003906 605.355469 215.371094 C 604.390625 213.757812 603.917969 211.953125 603.917969 209.988281 L 603.917969 206.53125 L 612.804688 206.53125 L 612.804688 209.742188 C 612.804688 210.285156 613.015625 210.777344 613.421875 211.179688 C 613.824219 211.582031 614.3125 211.792969 614.859375 211.792969 L 652.222656 211.792969 C 652.765625 211.792969 653.238281 211.582031 653.625 211.179688 C 654.011719 210.777344 654.203125 210.285156 654.203125 209.742188 L 654.203125 197.550781 C 654.203125 196.957031 654.011719 196.464844 653.625 196.113281 C 653.238281 195.761719 652.765625 195.570312 652.222656 195.570312 L 614.613281 195.570312 C 612.683594 195.570312 610.914062 195.078125 609.265625 194.097656 C 607.617188 193.113281 606.320312 191.800781 605.355469 190.183594 C 604.390625 188.570312 603.917969 186.765625 603.917969 184.800781 L 603.917969 172.121094 C 603.917969 170.136719 604.390625 168.347656 605.355469 166.734375 C 606.320312 165.121094 607.617188 163.824219 609.265625 162.859375 C 610.914062 161.894531 612.699219 161.421875 614.613281 161.421875 L 652.46875 161.421875 C 654.398438 161.421875 656.167969 161.894531 657.816406 162.859375 C 659.464844 163.824219 660.761719 165.101562 661.726562 166.734375 C 662.691406 168.347656 663.164062 170.15625 663.164062 172.121094 L 663.164062 175.574219 L 654.1875 175.574219 L 654.1875 172.363281 C 654.1875 171.820312 653.992188 171.332031 653.609375 170.925781 C 653.222656 170.523438 652.75 170.3125 652.207031 170.3125 L 614.839844 170.3125 C 614.296875 170.3125 613.804688 170.523438 613.402344 170.925781 C 613 171.332031 612.789062 171.820312 612.789062 172.363281 L 612.789062 184.554688 C 612.789062 185.152344 613 185.640625 613.402344 185.992188 C 613.804688 186.34375 614.296875 186.535156 614.839844 186.535156 L 652.449219 186.535156 C 654.378906 186.535156 656.148438 187.027344 657.796875 188.011719 C 659.445312 188.992188 660.746094 190.308594 661.707031 191.921875 C 662.671875 193.535156 663.144531 195.34375 663.144531 197.304688 L 663.144531 209.988281 C 663.144531 211.96875 662.671875 213.757812 661.707031 215.371094 C 660.746094 216.984375 659.445312 218.285156 657.796875 219.25 C 656.148438 220.214844 654.363281 220.6875 652.449219 220.6875 L 614.59375 220.6875 Z M 614.613281 220.6875 " fill-opacity="1" fill-rule="nonzero"/><path fill="#030e42" d="M 678.628906 219.195312 C 677.03125 218.214844 675.753906 216.914062 674.753906 215.320312 C 673.773438 213.722656 673.28125 211.953125 673.28125 209.96875 L 673.28125 183.625 C 673.28125 181.644531 673.773438 179.871094 674.753906 178.277344 C 675.734375 176.679688 677.03125 175.398438 678.628906 174.398438 C 680.222656 173.417969 681.996094 172.925781 683.976562 172.925781 L 711.136719 172.925781 C 713.117188 172.925781 714.90625 173.398438 716.519531 174.363281 C 718.132812 175.328125 719.429688 176.628906 720.394531 178.277344 C 721.359375 179.925781 721.832031 181.714844 721.832031 183.625 L 721.832031 201.234375 L 682.171875 201.234375 L 682.171875 209.707031 C 682.171875 210.25 682.382812 210.742188 682.785156 211.144531 C 683.1875 211.546875 683.679688 211.757812 684.222656 211.757812 L 721.832031 211.757812 L 721.832031 220.652344 L 683.976562 220.652344 C 681.996094 220.652344 680.222656 220.160156 678.628906 219.179688 Z M 682.171875 192.9375 L 712.871094 192.9375 L 712.871094 183.886719 C 712.871094 183.34375 712.679688 182.855469 712.292969 182.449219 C 711.910156 182.046875 711.433594 181.835938 710.890625 181.835938 L 684.222656 181.835938 C 683.679688 181.835938 683.1875 182.046875 682.785156 182.449219 C 682.382812 182.855469 682.171875 183.34375 682.171875 183.886719 Z M 682.171875 192.9375 " fill-opacity="1" fill-rule="nonzero"/><path fill="#030e42" d="M 735.421875 219.195312 C 733.824219 218.214844 732.546875 216.914062 731.546875 215.320312 C 730.5625 213.722656 730.074219 211.953125 730.074219 209.96875 L 730.074219 183.625 C 730.074219 181.644531 730.5625 179.871094 731.546875 178.277344 C 732.527344 176.679688 733.824219 175.398438 735.421875 174.398438 C 737.015625 173.417969 738.789062 172.925781 740.769531 172.925781 L 778.449219 172.925781 L 778.449219 181.820312 L 741.015625 181.820312 C 740.472656 181.820312 739.980469 182.027344 739.578125 182.433594 C 739.171875 182.835938 738.964844 183.328125 738.964844 183.871094 L 738.964844 209.722656 C 738.964844 210.269531 739.171875 210.757812 739.578125 211.164062 C 739.980469 211.566406 740.472656 211.777344 741.015625 211.777344 L 778.625 211.777344 L 778.625 220.667969 L 740.769531 220.667969 C 738.789062 220.667969 737.015625 220.179688 735.421875 219.195312 Z M 735.421875 219.195312 " fill-opacity="1" fill-rule="nonzero"/><g clip-path="url(#4042fd1132)"><g clip-path="url(#703f5f919c)"><path fill="url(#2716615021)" d="M 157.660156 118.097656 L 157.660156 265.097656 L 301.15625 265.097656 L 301.15625 118.097656 Z M 157.660156 118.097656 " fill-rule="nonzero"/></g></g><g fill="#000000" fill-opacity="1"><g transform="translate(341.900865, 295.691111)"><g><path d="M 5.472656 0 C 4.765625 0 4.121094 -0.171875 3.535156 -0.511719 C 2.949219 -0.851562 2.484375 -1.316406 2.144531 -1.902344 C 1.800781 -2.492188 1.632812 -3.136719 1.632812 -3.839844 L 1.632812 -4.734375 L 4.222656 -4.734375 L 4.222656 -3.839844 C 4.222656 -3.5 4.347656 -3.203125 4.589844 -2.960938 C 4.835938 -2.714844 5.128906 -2.589844 5.472656 -2.589844 L 20.828125 -2.589844 C 21.171875 -2.589844 21.464844 -2.714844 21.707031 -2.960938 C 21.953125 -3.203125 22.078125 -3.5 22.078125 -3.839844 L 22.078125 -8.992188 C 22.078125 -9.332031 21.953125 -9.621094 21.707031 -9.855469 C 21.464844 -10.089844 21.171875 -10.207031 20.828125 -10.207031 L 5.472656 -10.207031 C 4.765625 -10.207031 4.121094 -10.382812 3.535156 -10.734375 C 2.949219 -11.085938 2.484375 -11.550781 2.144531 -12.125 C 1.800781 -12.703125 1.632812 -13.34375 1.632812 -14.046875 L 1.632812 -19.195312 C 1.632812 -19.902344 1.800781 -20.546875 2.144531 -21.132812 C 2.484375 -21.71875 2.949219 -22.183594 3.535156 -22.523438 C 4.121094 -22.867188 4.765625 -23.035156 5.472656 -23.035156 L 20.828125 -23.035156 C 21.53125 -23.035156 22.179688 -22.867188 22.765625 -22.523438 C 23.351562 -22.183594 23.816406 -21.71875 24.15625 -21.132812 C 24.496094 -20.546875 24.667969 -19.902344 24.667969 -19.195312 L 24.667969 -18.300781 L 22.078125 -18.300781 L 22.078125 -19.195312 C 22.078125 -19.539062 21.953125 -19.832031 21.707031 -20.078125 C 21.464844 -20.320312 21.171875 -20.445312 20.828125 -20.445312 L 5.472656 -20.445312 C 5.128906 -20.445312 4.835938 -20.320312 4.589844 -20.078125 C 4.347656 -19.832031 4.222656 -19.539062 4.222656 -19.195312 L 4.222656 -14.046875 C 4.222656 -13.703125 4.347656 -13.417969 4.589844 -13.183594 C 4.835938 -12.949219 5.128906 -12.828125 5.472656 -12.828125 L 20.828125 -12.828125 C 21.53125 -12.828125 22.179688 -12.652344 22.765625 -12.300781 C 23.351562 -11.949219 23.816406 -11.484375 24.15625 -10.910156 C 24.496094 -10.335938 24.667969 -9.695312 24.667969 -8.992188 L 24.667969 -3.839844 C 24.667969 -3.136719 24.496094 -2.492188 24.15625 -1.902344 C 23.816406 -1.316406 23.351562 -0.851562 22.765625 -0.511719 C 22.179688 -0.171875 21.53125 0 20.828125 0 Z M 5.472656 0 "/></g></g></g><g fill="#000000" fill-opacity="1"><g transform="translate(368.198402, 295.691111)"><g><path d="M 1.726562 0 L 1.726562 -24.636719 L 4.351562 -24.636719 L 4.351562 -18.558594 L 16.765625 -18.558594 C 17.46875 -18.558594 18.113281 -18.382812 18.699219 -18.027344 C 19.289062 -17.675781 19.757812 -17.207031 20.109375 -16.621094 C 20.460938 -16.035156 20.636719 -15.390625 20.636719 -14.6875 L 20.636719 0 L 18.011719 0 L 18.011719 -14.6875 C 18.011719 -15.027344 17.890625 -15.320312 17.644531 -15.566406 C 17.398438 -15.8125 17.105469 -15.933594 16.765625 -15.933594 L 5.632812 -15.933594 C 5.289062 -15.933594 4.992188 -15.8125 4.734375 -15.566406 C 4.480469 -15.320312 4.351562 -15.027344 4.351562 -14.6875 L 4.351562 0 Z M 1.726562 0 "/></g></g></g><g fill="#000000" fill-opacity="1"><g transform="translate(389.569143, 295.691111)"><g><path d="M 5.535156 0 C 4.832031 0 4.1875 -0.175781 3.597656 -0.527344 C 3.011719 -0.878906 2.542969 -1.347656 2.191406 -1.9375 C 1.839844 -2.523438 1.664062 -3.167969 1.664062 -3.871094 L 1.664062 -10.589844 L 17.917969 -10.589844 L 17.917969 -14.6875 C 17.917969 -15.027344 17.792969 -15.320312 17.550781 -15.566406 C 17.304688 -15.8125 17.011719 -15.933594 16.667969 -15.933594 L 1.664062 -15.933594 L 1.664062 -18.558594 L 16.667969 -18.558594 C 17.394531 -18.558594 18.050781 -18.382812 18.636719 -18.027344 C 19.222656 -17.675781 19.691406 -17.207031 20.042969 -16.621094 C 20.398438 -16.035156 20.574219 -15.390625 20.574219 -14.6875 L 20.574219 0 Z M 5.535156 -2.625 L 17.917969 -2.625 L 17.917969 -7.964844 L 4.289062 -7.964844 L 4.289062 -3.871094 C 4.289062 -3.53125 4.410156 -3.238281 4.65625 -2.992188 C 4.902344 -2.746094 5.195312 -2.625 5.535156 -2.625 Z M 5.535156 -2.625 "/></g></g></g><g fill="#000000" fill-opacity="1"><g transform="translate(411.771687, 295.691111)"><g><path d="M 1.726562 0 L 1.726562 -3.582031 L 17.757812 -15.933594 L 1.726562 -15.933594 L 1.726562 -18.558594 L 20.636719 -18.558594 L 20.636719 -14.972656 L 4.605469 -2.625 L 20.636719 -2.625 L 20.636719 0 Z M 1.726562 0 "/></g></g></g><g fill="#000000" fill-opacity="1"><g transform="translate(434.102198, 295.691111)"><g><path d="M 5.535156 0 C 4.832031 0 4.1875 -0.175781 3.597656 -0.527344 C 3.011719 -0.878906 2.542969 -1.347656 2.191406 -1.9375 C 1.839844 -2.523438 1.664062 -3.167969 1.664062 -3.871094 L 1.664062 -10.589844 L 17.917969 -10.589844 L 17.917969 -14.6875 C 17.917969 -15.027344 17.792969 -15.320312 17.550781 -15.566406 C 17.304688 -15.8125 17.011719 -15.933594 16.667969 -15.933594 L 1.664062 -15.933594 L 1.664062 -18.558594 L 16.667969 -18.558594 C 17.394531 -18.558594 18.050781 -18.382812 18.636719 -18.027344 C 19.222656 -17.675781 19.691406 -17.207031 20.042969 -16.621094 C 20.398438 -16.035156 20.574219 -15.390625 20.574219 -14.6875 L 20.574219 0 Z M 5.535156 -2.625 L 17.917969 -2.625 L 17.917969 -7.964844 L 4.289062 -7.964844 L 4.289062 -3.871094 C 4.289062 -3.53125 4.410156 -3.238281 4.65625 -2.992188 C 4.902344 -2.746094 5.195312 -2.625 5.535156 -2.625 Z M 5.535156 -2.625 "/></g></g></g><g fill="#000000" fill-opacity="1"><g transform="translate(456.304742, 295.691111)"><g><path d="M 1.726562 0 L 1.726562 -18.558594 L 26.234375 -18.558594 C 26.960938 -18.558594 27.617188 -18.382812 28.203125 -18.027344 C 28.789062 -17.675781 29.253906 -17.207031 29.59375 -16.621094 C 29.9375 -16.035156 30.105469 -15.390625 30.105469 -14.6875 L 30.105469 0 L 27.515625 0 L 27.515625 -14.6875 C 27.515625 -15.027344 27.386719 -15.320312 27.132812 -15.566406 C 26.875 -15.8125 26.578125 -15.933594 26.234375 -15.933594 L 18.523438 -15.933594 C 18.183594 -15.933594 17.890625 -15.8125 17.644531 -15.566406 C 17.398438 -15.320312 17.277344 -15.027344 17.277344 -14.6875 L 17.277344 0 L 14.621094 0 L 14.621094 -14.6875 C 14.621094 -15.027344 14.5 -15.320312 14.253906 -15.566406 C 14.007812 -15.8125 13.714844 -15.933594 13.375 -15.933594 L 5.632812 -15.933594 C 5.289062 -15.933594 4.996094 -15.8125 4.75 -15.566406 C 4.507812 -15.320312 4.382812 -15.027344 4.382812 -14.6875 L 4.382812 0 Z M 1.726562 0 "/></g></g></g><g fill="#000000" fill-opacity="1"><g transform="translate(487.593047, 295.691111)"><g/></g></g><g fill="#000000" fill-opacity="1"><g transform="translate(496.294904, 295.691111)"><g><path d="M 5.503906 0 C 4.800781 0 4.152344 -0.175781 3.566406 -0.527344 C 2.980469 -0.878906 2.511719 -1.347656 2.160156 -1.9375 C 1.808594 -2.523438 1.632812 -3.167969 1.632812 -3.871094 L 1.632812 -14.6875 C 1.632812 -15.390625 1.808594 -16.035156 2.160156 -16.621094 C 2.511719 -17.207031 2.980469 -17.675781 3.566406 -18.027344 C 4.152344 -18.382812 4.800781 -18.558594 5.503906 -18.558594 L 16.636719 -18.558594 C 17.363281 -18.558594 18.019531 -18.382812 18.605469 -18.027344 C 19.191406 -17.675781 19.660156 -17.207031 20.011719 -16.621094 C 20.363281 -16.035156 20.539062 -15.390625 20.539062 -14.6875 L 20.539062 -3.871094 C 20.539062 -3.167969 20.363281 -2.523438 20.011719 -1.9375 C 19.660156 -1.347656 19.191406 -0.878906 18.605469 -0.527344 C 18.019531 -0.175781 17.363281 0 16.636719 0 Z M 5.503906 -2.625 L 16.636719 -2.625 C 16.980469 -2.625 17.273438 -2.746094 17.515625 -2.992188 C 17.761719 -3.238281 17.886719 -3.53125 17.886719 -3.871094 L 17.886719 -14.6875 C 17.886719 -15.027344 17.761719 -15.320312 17.515625 -15.566406 C 17.273438 -15.8125 16.980469 -15.933594 16.636719 -15.933594 L 5.503906 -15.933594 C 5.160156 -15.933594 4.867188 -15.8125 4.625 -15.566406 C 4.378906 -15.320312 4.253906 -15.027344 4.253906 -14.6875 L 4.253906 -3.871094 C 4.253906 -3.53125 4.378906 -3.238281 4.625 -2.992188 C 4.867188 -2.746094 5.160156 -2.625 5.503906 -2.625 Z M 5.503906 -2.625 "/></g></g></g><g fill="#000000" fill-opacity="1"><g transform="translate(518.433464, 295.691111)"><g><path d="M 1.695312 0 L 1.695312 -20.765625 C 1.695312 -21.488281 1.867188 -22.144531 2.207031 -22.734375 C 2.550781 -23.320312 3.011719 -23.78125 3.597656 -24.125 C 4.1875 -24.464844 4.84375 -24.636719 5.566406 -24.636719 L 12.351562 -24.636719 L 12.351562 -22.011719 L 5.566406 -22.011719 C 5.226562 -22.011719 4.933594 -21.890625 4.6875 -21.644531 C 4.441406 -21.398438 4.320312 -21.105469 4.320312 -20.765625 L 4.320312 -18.558594 L 12.351562 -18.558594 L 12.351562 -15.933594 L 4.320312 -15.933594 L 4.320312 0 Z M 1.695312 0 "/></g></g></g><g fill="#000000" fill-opacity="1"><g transform="translate(531.454265, 295.691111)"><g/></g></g><g fill="#000000" fill-opacity="1"><g transform="translate(540.156123, 295.691111)"><g><path d="M 5.566406 0 C 4.84375 0 4.1875 -0.175781 3.597656 -0.527344 C 3.011719 -0.878906 2.550781 -1.347656 2.207031 -1.9375 C 1.867188 -2.523438 1.695312 -3.167969 1.695312 -3.871094 L 1.695312 -24.636719 L 4.320312 -24.636719 L 4.320312 -18.558594 L 12.351562 -18.558594 L 12.351562 -15.933594 L 4.320312 -15.933594 L 4.320312 -3.871094 C 4.320312 -3.53125 4.441406 -3.238281 4.6875 -2.992188 C 4.933594 -2.746094 5.226562 -2.625 5.566406 -2.625 L 12.351562 -2.625 L 12.351562 0 Z M 5.566406 0 "/></g></g></g><g fill="#000000" fill-opacity="1"><g transform="translate(553.272905, 295.691111)"><g><path d="M 1.726562 0 L 1.726562 -24.636719 L 4.351562 -24.636719 L 4.351562 -18.558594 L 16.765625 -18.558594 C 17.46875 -18.558594 18.113281 -18.382812 18.699219 -18.027344 C 19.289062 -17.675781 19.757812 -17.207031 20.109375 -16.621094 C 20.460938 -16.035156 20.636719 -15.390625 20.636719 -14.6875 L 20.636719 0 L 18.011719 0 L 18.011719 -14.6875 C 18.011719 -15.027344 17.890625 -15.320312 17.644531 -15.566406 C 17.398438 -15.8125 17.105469 -15.933594 16.765625 -15.933594 L 5.632812 -15.933594 C 5.289062 -15.933594 4.992188 -15.8125 4.734375 -15.566406 C 4.480469 -15.320312 4.351562 -15.027344 4.351562 -14.6875 L 4.351562 0 Z M 1.726562 0 "/></g></g></g><g fill="#000000" fill-opacity="1"><g transform="translate(574.643646, 295.691111)"><g><path d="M 5.503906 0 C 4.800781 0 4.152344 -0.175781 3.566406 -0.527344 C 2.980469 -0.878906 2.511719 -1.347656 2.160156 -1.9375 C 1.808594 -2.523438 1.632812 -3.167969 1.632812 -3.871094 L 1.632812 -14.6875 C 1.632812 -15.390625 1.808594 -16.035156 2.160156 -16.621094 C 2.511719 -17.207031 2.980469 -17.675781 3.566406 -18.027344 C 4.152344 -18.382812 4.800781 -18.558594 5.503906 -18.558594 L 16.636719 -18.558594 C 17.363281 -18.558594 18.019531 -18.382812 18.605469 -18.027344 C 19.191406 -17.675781 19.660156 -17.207031 20.011719 -16.621094 C 20.363281 -16.035156 20.539062 -15.390625 20.539062 -14.6875 L 20.539062 -7.964844 L 4.253906 -7.964844 L 4.253906 -3.871094 C 4.253906 -3.53125 4.378906 -3.238281 4.625 -2.992188 C 4.867188 -2.746094 5.160156 -2.625 5.503906 -2.625 L 20.539062 -2.625 L 20.539062 0 Z M 4.253906 -10.589844 L 17.886719 -10.589844 L 17.886719 -14.6875 C 17.886719 -15.027344 17.761719 -15.320312 17.515625 -15.566406 C 17.273438 -15.8125 16.980469 -15.933594 16.636719 -15.933594 L 5.503906 -15.933594 C 5.160156 -15.933594 4.867188 -15.8125 4.625 -15.566406 C 4.378906 -15.320312 4.253906 -15.027344 4.253906 -14.6875 Z M 4.253906 -10.589844 "/></g></g></g><g fill="#000000" fill-opacity="1"><g transform="translate(596.782194, 295.691111)"><g/></g></g><g fill="#000000" fill-opacity="1"><g transform="translate(605.484052, 295.691111)"><g><path d="M 1.726562 0 L 1.726562 -18.558594 L 16.765625 -18.558594 C 17.46875 -18.558594 18.113281 -18.382812 18.699219 -18.027344 C 19.289062 -17.675781 19.757812 -17.207031 20.109375 -16.621094 C 20.460938 -16.035156 20.636719 -15.390625 20.636719 -14.6875 L 20.636719 0 L 18.011719 0 L 18.011719 -14.6875 C 18.011719 -15.027344 17.890625 -15.320312 17.644531 -15.566406 C 17.398438 -15.8125 17.105469 -15.933594 16.765625 -15.933594 L 5.632812 -15.933594 C 5.289062 -15.933594 4.992188 -15.8125 4.734375 -15.566406 C 4.480469 -15.320312 4.351562 -15.027344 4.351562 -14.6875 L 4.351562 0 Z M 1.726562 0 "/></g></g></g><g fill="#000000" fill-opacity="1"><g transform="translate(627.750591, 295.691111)"><g><path d="M 5.503906 0 C 4.800781 0 4.152344 -0.175781 3.566406 -0.527344 C 2.980469 -0.878906 2.511719 -1.347656 2.160156 -1.9375 C 1.808594 -2.523438 1.632812 -3.167969 1.632812 -3.871094 L 1.632812 -14.6875 C 1.632812 -15.390625 1.808594 -16.035156 2.160156 -16.621094 C 2.511719 -17.207031 2.980469 -17.675781 3.566406 -18.027344 C 4.152344 -18.382812 4.800781 -18.558594 5.503906 -18.558594 L 16.636719 -18.558594 C 17.363281 -18.558594 18.019531 -18.382812 18.605469 -18.027344 C 19.191406 -17.675781 19.660156 -17.207031 20.011719 -16.621094 C 20.363281 -16.035156 20.539062 -15.390625 20.539062 -14.6875 L 20.539062 -7.964844 L 4.253906 -7.964844 L 4.253906 -3.871094 C 4.253906 -3.53125 4.378906 -3.238281 4.625 -2.992188 C 4.867188 -2.746094 5.160156 -2.625 5.503906 -2.625 L 20.539062 -2.625 L 20.539062 0 Z M 4.253906 -10.589844 L 17.886719 -10.589844 L 17.886719 -14.6875 C 17.886719 -15.027344 17.761719 -15.320312 17.515625 -15.566406 C 17.273438 -15.8125 16.980469 -15.933594 16.636719 -15.933594 L 5.503906 -15.933594 C 5.160156 -15.933594 4.867188 -15.8125 4.625 -15.566406 C 4.378906 -15.320312 4.253906 -15.027344 4.253906 -14.6875 Z M 4.253906 -10.589844 "/></g></g></g><g fill="#000000" fill-opacity="1"><g transform="translate(649.889139, 295.691111)"><g><path d="M 5.566406 0 C 4.84375 0 4.1875 -0.175781 3.597656 -0.527344 C 3.011719 -0.878906 2.550781 -1.347656 2.207031 -1.9375 C 1.867188 -2.523438 1.695312 -3.167969 1.695312 -3.871094 L 1.695312 -24.636719 L 4.320312 -24.636719 L 4.320312 -18.558594 L 12.351562 -18.558594 L 12.351562 -15.933594 L 4.320312 -15.933594 L 4.320312 -3.871094 C 4.320312 -3.53125 4.441406 -3.238281 4.6875 -2.992188 C 4.933594 -2.746094 5.226562 -2.625 5.566406 -2.625 L 12.351562 -2.625 L 12.351562 0 Z M 5.566406 0 "/></g></g></g><g fill="#000000" fill-opacity="1"><g transform="translate(663.005898, 295.691111)"><g><path d="M 8.414062 0 L 1.121094 -18.558594 L 3.933594 -18.558594 L 9.566406 -4.734375 L 15.550781 -18.558594 L 19.003906 -18.558594 L 25.371094 -4.765625 L 30.621094 -18.558594 L 33.464844 -18.558594 L 26.460938 0 L 24.1875 0 L 17.277344 -15.324219 L 10.71875 0 Z M 8.414062 0 "/></g></g></g><g fill="#000000" fill-opacity="1"><g transform="translate(697.269483, 295.691111)"><g><path d="M 5.503906 0 C 4.800781 0 4.152344 -0.175781 3.566406 -0.527344 C 2.980469 -0.878906 2.511719 -1.347656 2.160156 -1.9375 C 1.808594 -2.523438 1.632812 -3.167969 1.632812 -3.871094 L 1.632812 -14.6875 C 1.632812 -15.390625 1.808594 -16.035156 2.160156 -16.621094 C 2.511719 -17.207031 2.980469 -17.675781 3.566406 -18.027344 C 4.152344 -18.382812 4.800781 -18.558594 5.503906 -18.558594 L 16.636719 -18.558594 C 17.363281 -18.558594 18.019531 -18.382812 18.605469 -18.027344 C 19.191406 -17.675781 19.660156 -17.207031 20.011719 -16.621094 C 20.363281 -16.035156 20.539062 -15.390625 20.539062 -14.6875 L 20.539062 -3.871094 C 20.539062 -3.167969 20.363281 -2.523438 20.011719 -1.9375 C 19.660156 -1.347656 19.191406 -0.878906 18.605469 -0.527344 C 18.019531 -0.175781 17.363281 0 16.636719 0 Z M 5.503906 -2.625 L 16.636719 -2.625 C 16.980469 -2.625 17.273438 -2.746094 17.515625 -2.992188 C 17.761719 -3.238281 17.886719 -3.53125 17.886719 -3.871094 L 17.886719 -14.6875 C 17.886719 -15.027344 17.761719 -15.320312 17.515625 -15.566406 C 17.273438 -15.8125 16.980469 -15.933594 16.636719 -15.933594 L 5.503906 -15.933594 C 5.160156 -15.933594 4.867188 -15.8125 4.625 -15.566406 C 4.378906 -15.320312 4.253906 -15.027344 4.253906 -14.6875 L 4.253906 -3.871094 C 4.253906 -3.53125 4.378906 -3.238281 4.625 -2.992188 C 4.867188 -2.746094 5.160156 -2.625 5.503906 -2.625 Z M 5.503906 -2.625 "/></g></g></g><g fill="#000000" fill-opacity="1"><g transform="translate(719.408054, 295.691111)"><g><path d="M 1.664062 0 L 1.664062 -14.6875 C 1.664062 -15.390625 1.839844 -16.035156 2.191406 -16.621094 C 2.542969 -17.207031 3.011719 -17.675781 3.597656 -18.027344 C 4.1875 -18.382812 4.832031 -18.558594 5.535156 -18.558594 L 15.964844 -18.558594 L 15.964844 -15.933594 L 5.535156 -15.933594 C 5.195312 -15.933594 4.902344 -15.8125 4.65625 -15.566406 C 4.410156 -15.320312 4.289062 -15.027344 4.289062 -14.6875 L 4.289062 0 Z M 1.664062 0 "/></g></g></g><g fill="#000000" fill-opacity="1"><g transform="translate(735.788028, 295.691111)"><g><path d="M 1.726562 0 L 1.726562 -24.636719 L 4.351562 -24.636719 L 4.351562 -10.589844 L 9.46875 -10.589844 L 16.765625 -18.558594 L 20.222656 -18.558594 L 20.222656 -18.523438 L 11.804688 -9.277344 L 20.1875 -0.03125 L 20.1875 0 L 16.765625 0 L 9.46875 -7.964844 L 4.351562 -7.964844 L 4.351562 0 Z M 1.726562 0 "/></g></g></g></svg>